# Blender v3.0.1 OBJ File: ''
# www.blender.org
mtllib 3.mtl
o Low_Poly_Rock_Low_Poly_Rock_Mesh.005
v 3.201596 -0.756504 -0.690988
v 2.905028 -0.235949 1.276785
v -0.736801 -0.752544 2.727808
v -3.418451 -0.211099 0.409307
v 0.901877 -0.177998 -3.919087
v 2.342090 1.040901 -0.832207
v 0.161643 1.358478 -0.932536
v -2.754821 0.648435 2.592487
v -1.507371 1.290926 0.403139
v -1.454845 0.780224 -0.933559
v -0.367601 0.813660 -3.221089
v -3.246273 0.595900 -0.134128
v -2.806850 0.404033 -1.538545
v 1.578195 1.235751 1.394999
v -0.502093 1.077495 2.582961
v 1.318670 0.711765 3.340602
v 3.072237 0.763170 0.420211
v 2.364151 -0.445174 -2.593910
v -1.906587 0.537368 -3.011378
v -2.057144 -0.305521 -2.561029
v -3.060215 0.075332 0.741876
v -0.556066 0.426939 3.717125
v 2.453406 0.197535 1.158745
v -0.261904 -0.475155 -3.835076
v -2.902787 -0.189333 -1.154470
v -2.536367 -0.238471 2.412132
v -1.173767 -0.333861 3.820505
v 1.252252 -0.143861 1.850277
v 2.520279 0.162256 -1.389327
v 3.577244 -0.246801 -0.383803
v 2.533847 -0.666879 1.100548
v 0.580171 -0.613398 -1.537424
v -1.098679 -0.983059 -1.583632
v -2.335148 -0.752111 -1.495387
v -0.781597 -1.084091 0.052892
v -2.586857 -0.803523 0.510464
v -1.466151 -0.723332 1.643678
v 1.234387 -1.066183 -0.919694
v 1.299101 -1.163100 0.110889
v 1.392559 -0.969728 2.366073
vn -0.8311 -0.2611 -0.4910
vn 0.1509 0.9532 -0.2618
vn 0.8236 0.4133 -0.3885
vn 0.5368 0.5267 -0.6590
vn -0.1880 0.9644 -0.1861
vn -0.6430 0.7067 -0.2953
vn -0.0251 -0.9972 -0.0704
vn -0.2507 0.9010 -0.3541
vn -0.1837 0.9646 -0.1893
vn -0.3843 0.9218 0.0515
vn 0.6584 -0.6841 0.3137
vn 0.0807 0.9597 0.2692
vn -0.1833 0.9666 0.1792
vn -0.1616 0.8593 0.4852
vn -0.0322 0.8676 0.4961
vn 0.1457 0.9887 -0.0365
vn 0.3167 0.9482 0.0257
vn 0.4544 0.8431 0.2877
vn 0.8291 -0.2631 0.4932
vn -0.2108 0.9752 -0.0682
vn -0.5701 -0.3056 -0.7626
vn 0.2244 -0.9644 -0.1402
vn -0.9905 0.0981 -0.0959
vn -0.8000 -0.5749 -0.1718
vn -0.4591 -0.2842 0.8417
vn -0.5801 0.5523 0.5987
vn -0.1724 -0.9843 -0.0381
vn -0.0149 -0.9832 -0.1818
vn 0.4341 -0.7895 0.4339
vn -0.0073 0.9969 0.0783
vn -0.5214 0.8381 -0.1603
vn -0.1955 -0.8853 -0.4220
vn -0.5535 -0.8100 -0.1938
vn -0.7597 0.5529 0.3422
vn -0.5821 -0.7751 0.2458
vn -0.9621 -0.1717 0.2120
vn 0.2012 -0.0304 0.9791
vn 0.5156 0.5152 0.6846
vn 0.6925 -0.7209 0.0282
vn 0.3637 0.9315 -0.0034
vn 0.6349 0.7302 0.2523
vn -0.1841 0.4104 -0.8931
vn 0.8319 -0.3573 -0.4246
vn -0.1828 -0.8752 -0.4479
vn 0.1728 -0.6981 -0.6948
vn -0.0621 -0.9923 0.1074
vn -0.3099 -0.8962 -0.3174
vn -0.3021 -0.9305 0.2071
vn -0.7321 -0.6724 -0.1091
vn -0.2196 -0.9336 0.2832
vn -0.1076 -0.9786 0.1756
vn -0.2224 -0.9671 0.1236
vn 0.1777 -0.9557 -0.2346
vn 0.2654 -0.9529 0.1466
vn 0.1663 -0.9807 -0.1027
vn 0.3251 -0.9433 0.0674
vn -0.0371 -0.9380 0.3446
vn 0.4943 0.7700 -0.4033
vn 0.3029 0.5382 0.7865
usemtl None
s off
f 25//1 13//1 19//1 20//1 34//1
f 6//2 11//2 7//2
f 17//3 29//3 6//3
f 29//4 11//4 6//4
f 7//5 11//5 9//5
f 11//6 10//6 9//6
f 39//7 35//7 33//7 38//7
f 10//8 12//8 9//8
f 13//9 12//9 10//9
f 12//10 8//10 9//10
f 1//11 30//11 2//11 40//11 31//11
f 15//12 16//12 14//12
f 8//13 15//13 9//13
f 8//14 22//14 15//14
f 15//15 22//15 16//15
f 14//16 6//16 7//16
f 14//17 17//17 6//17
f 16//18 17//18 14//18
f 16//19 23//19 17//19
f 19//20 13//20 10//20 11//20
f 24//21 20//21 19//21
f 33//22 24//22 5//22 32//22
f 25//23 21//23 13//23
f 21//24 12//24 13//24
f 26//25 22//25 8//25
f 26//26 27//26 22//26
f 35//27 36//27 34//27 33//27
f 18//28 32//28 5//28
f 27//29 28//29 23//29 16//29
f 9//30 15//30 14//30 7//30
f 25//31 4//31 21//31
f 33//32 34//32 20//32
f 25//33 36//33 4//33
f 4//34 26//34 21//34
f 36//35 26//35 4//35
f 21//36 26//36 8//36 12//36
f 22//37 27//37 16//37
f 27//38 40//38 28//38
f 23//39 29//39 17//39
f 23//40 30//40 29//40
f 23//41 2//41 30//41
f 19//42 11//42 5//42 24//42
f 1//43 18//43 30//43
f 38//44 32//44 18//44
f 38//45 33//45 32//45
f 40//46 3//46 35//46 39//46
f 24//47 33//47 20//47
f 3//48 27//48 26//48 37//48
f 34//49 36//49 25//49
f 36//50 37//50 26//50
f 36//51 35//51 37//51
f 35//52 3//52 37//52
f 1//53 38//53 18//53
f 31//54 39//54 1//54
f 39//55 38//55 1//55
f 31//56 40//56 39//56
f 3//57 40//57 27//57
f 18//58 5//58 11//58 29//58 30//58
f 40//59 2//59 23//59 28//59
