# Blender v3.0.1 OBJ File: ''
# www.blender.org
mtllib 4.mtl
o Low_Poly_Rock_Low_Poly_Rock_Mesh.005
v 0.268316 1.299329 -1.253202
v -0.362480 -1.069394 1.205679
v -0.287067 -1.038562 -0.975997
v 2.879550 0.099805 -0.665780
v 0.607140 0.117222 3.316953
v -2.225831 -0.332087 -2.491508
v -3.384344 -0.267473 0.428403
v -2.963060 0.442486 -1.136989
v -0.507850 -0.245349 -3.635242
v 0.516700 0.086661 -3.576822
v -0.584300 1.244679 1.858770
v 1.691569 0.814556 2.923023
v -1.244314 1.221132 0.072727
v -0.415040 0.808181 -3.195372
v 1.669781 1.045541 -1.434211
v 2.318460 0.319733 -1.253610
v -2.973573 0.830013 0.986482
v -0.708409 0.613422 3.780047
v 1.518029 1.257920 0.955480
v 2.866661 0.835611 0.157092
v -1.959276 0.535955 -2.670006
v -3.066751 0.172577 0.606529
v -2.690331 0.473477 2.135731
v 2.503017 0.182264 1.156777
v 2.935758 -0.233658 1.131252
v 2.216122 -0.324328 -2.586749
v 2.390101 -0.700624 -1.554912
v -0.234594 -0.592928 -3.161310
v -2.772366 -0.013847 -1.211873
v -2.138853 0.111356 2.191440
v -1.607312 -0.365029 3.523882
v -2.707541 -0.485527 1.346946
v 1.277134 -0.043614 1.922381
v -0.102745 -0.626043 3.209363
v 3.539232 -0.584702 -0.599576
v -1.861126 -0.857934 -0.918664
v -2.256835 -0.884097 0.161257
v 1.434258 -1.124951 -0.353487
v 1.348710 -1.001608 1.753994
vn 0.2607 0.9630 -0.0690
vn 0.1681 0.9828 -0.0767
vn 0.1346 0.9484 -0.2872
vn 0.7035 0.7024 0.1083
vn 0.5844 0.3388 -0.7374
vn 0.4410 0.7924 -0.4215
vn 0.1517 -0.9692 -0.1940
vn -0.1911 0.9799 0.0577
vn -0.2915 0.9061 0.3066
vn 0.0326 0.9489 0.3139
vn 0.0849 0.9736 0.2119
vn 0.3849 0.9071 0.1704
vn 0.9167 0.0867 0.3901
vn -0.0174 0.9998 0.0128
vn -0.1621 0.6335 -0.7566
vn -0.3321 0.0685 -0.9407
vn -0.5541 -0.0010 -0.8324
vn -0.9233 -0.3675 -0.1118
vn -0.9866 0.1595 -0.0340
vn -0.7592 0.6235 -0.1868
vn -0.9710 -0.0006 0.2391
vn -0.4725 -0.6238 0.6226
vn -0.8051 0.3287 0.4937
vn 0.4333 0.0319 0.9007
vn 0.3355 0.0104 0.9420
vn 0.4371 -0.7642 0.4744
vn 0.9545 -0.2147 0.2069
vn 0.3977 0.8574 -0.3266
vn 0.1618 -0.3464 0.9240
vn -0.8037 -0.2470 -0.5413
vn -0.8863 0.1849 -0.4245
vn -0.2670 -0.8440 -0.4651
vn -0.6595 -0.7455 -0.0963
vn -0.5457 -0.7865 0.2891
vn -0.2619 0.9501 -0.1695
vn 0.0498 -0.9456 -0.3215
vn -0.4532 -0.8827 0.1244
vn 0.5938 -0.7156 0.3678
vn 0.5016 -0.5729 0.6481
vn 0.9009 -0.0089 0.4339
vn 0.2434 -0.6875 -0.6842
vn 0.6855 0.6244 -0.3746
vn -0.2263 -0.9551 0.1911
vn -0.2124 -0.9405 -0.2652
vn -0.1189 -0.9723 -0.2011
vn -0.0759 -0.9968 -0.0252
vn 0.7243 0.4658 -0.5084
vn 0.3947 -0.8398 -0.3728
vn 0.5142 -0.7878 0.3391
vn 0.2281 -0.9608 -0.1578
vn 0.2554 -0.9645 0.0668
vn -0.5556 -0.7806 -0.2861
vn -0.1197 -0.9660 0.2293
vn -0.0318 -0.9750 0.2199
vn 0.0206 -0.9980 0.0592
usemtl None
s off
f 20//1 15//1 19//1
f 19//2 15//2 1//2
f 15//3 14//3 1//3
f 25//4 35//4 4//4 24//4
f 16//5 14//5 15//5
f 16//6 10//6 14//6
f 26//7 3//7 28//7
f 13//8 17//8 11//8
f 23//9 18//9 11//9 17//9
f 11//10 18//10 12//10
f 12//11 19//11 11//11
f 12//12 20//12 19//12
f 12//13 24//13 20//13
f 11//14 19//14 1//14 13//14
f 9//15 21//15 10//15
f 10//16 21//16 14//16
f 9//17 6//17 21//17
f 29//18 22//18 8//18
f 8//19 22//19 17//19
f 29//20 7//20 22//20
f 22//21 23//21 17//21
f 30//22 18//22 23//22
f 32//23 31//23 18//23 30//23 22//23 7//23
f 39//24 25//24 24//24 33//24
f 5//25 12//25 18//25
f 33//26 24//26 12//26
f 24//27 4//27 20//27
f 4//28 26//28 10//28
f 31//29 34//29 5//29 18//29
f 21//30 29//30 8//30
f 6//31 29//31 21//31
f 28//32 6//32 9//32
f 6//33 36//33 29//33
f 22//34 30//34 23//34
f 14//35 21//35 8//35 17//35 13//35 1//35
f 26//36 27//36 38//36 3//36
f 7//37 37//37 32//37
f 5//38 33//38 12//38
f 34//39 39//39 5//39
f 5//40 39//40 33//40
f 26//41 28//41 9//41 10//41
f 35//42 26//42 4//42
f 2//43 31//43 32//43 37//43
f 28//44 36//44 6//44
f 28//45 3//45 36//45
f 2//46 37//46 36//46 3//46 38//46
f 16//47 15//47 20//47 4//47 10//47
f 35//48 27//48 26//48
f 25//49 39//49 35//49
f 35//50 38//50 27//50
f 39//51 38//51 35//51
f 37//52 7//52 29//52 36//52
f 2//53 34//53 31//53
f 2//54 39//54 34//54
f 2//55 38//55 39//55
