# Blender v3.0.1 OBJ File: 'cauldron.blend'
# www.blender.org
mtllib cauldron.mtl
o Icosphere_Icosphere.001
v 0.000000 -0.208618 0.000000
v 1.247740 0.440224 -0.000007
v 0.385578 0.440224 1.186669
v -1.009454 0.440224 0.733411
v -1.009439 0.440224 -0.733408
v 0.385580 0.440224 -1.186669
v 1.009439 1.490078 0.733408
v -0.385580 1.490078 1.186669
v -1.247740 1.490078 0.000007
v -0.385578 1.490078 -1.186669
v 1.009454 1.490078 -0.733411
v 0.000000 0.339740 -0.000000
v 1.009446 1.490078 -0.000002
v 0.311929 1.490078 0.960038
v -0.816660 1.490078 0.593338
v -0.816659 1.490078 -0.593331
v 0.311938 1.490078 -0.960040
v 0.745959 0.895599 0.541976
v 0.745970 0.895599 -0.541979
v -0.284937 0.895599 0.876929
v -0.922060 0.895599 0.000005
v -0.284936 0.895599 -0.876929
v 0.551795 0.554296 -0.400903
v 0.551787 0.554296 0.400900
v -0.210768 0.554296 0.648665
v -0.682048 0.554296 0.000004
v -0.210767 0.554296 -0.648665
v 0.230517 0.895599 -0.709454
v -0.603498 0.895599 -0.438462
v -0.603498 0.895599 0.438467
v 0.230511 0.895599 0.709453
v 0.745965 0.895599 -0.000002
vt 0.181819 0.000000
vt 0.272728 0.157461
vt 0.090910 0.157461
vt 0.363637 0.000000
vt 0.454546 0.157461
vt 0.909091 0.000000
vt 1.000000 0.157461
vt 0.818182 0.157461
vt 0.727273 0.000000
vt 0.636364 0.157461
vt 0.545455 0.000000
vt 0.363637 0.314921
vt 0.181819 0.314921
vt 0.909091 0.314921
vt 0.727273 0.314921
vt 0.545455 0.314921
vt 0.272728 0.314921
vt 0.090910 0.314921
vt 0.000000 0.314921
vt 0.818182 0.314921
vt 0.636364 0.314921
vt 0.454546 0.314921
vt 0.227273 0.393651
vt 0.045455 0.393651
vt 0.772727 0.393651
vt 0.590909 0.393651
vt 0.409092 0.393651
vt 0.454546 0.393651
vt 0.431819 0.433017
vt 0.500000 0.393651
vt 0.636364 0.393651
vt 0.613637 0.433017
vt 0.681818 0.393651
vt 0.818182 0.393651
vt 0.795455 0.433017
vt 0.863636 0.393651
vt 0.090910 0.393651
vt 0.068182 0.433017
vt 0.136365 0.393651
vt 0.272728 0.393651
vt 0.250001 0.433017
vt 0.318182 0.393651
vt 0.295455 0.433017
vt 0.272728 0.472382
vt 0.113637 0.433017
vt 0.090910 0.472382
vt 0.840909 0.433017
vt 0.818182 0.472382
vt 0.659091 0.433017
vt 0.636364 0.472382
vt 0.477273 0.433017
vt 0.454546 0.472382
vn 0.4374 -0.8412 0.3178
vn 0.4374 -0.8412 -0.3178
vn -0.1671 -0.8412 0.5142
vn -0.5407 -0.8412 -0.0000
vn -0.1671 -0.8412 -0.5142
vn 0.7889 -0.2214 -0.5732
vn 0.7890 -0.2214 0.5732
vn -0.3013 -0.2213 0.9275
vn -0.9752 -0.2213 -0.0000
vn -0.3013 -0.2214 -0.9275
vn 0.9752 0.2213 0.0000
vn 0.3013 0.2214 0.9275
vn -0.7889 0.2214 0.5732
vn -0.7890 0.2214 -0.5732
vn 0.3013 0.2213 -0.9275
vn -0.9142 0.4052 -0.0000
vn -0.2825 0.4052 -0.8695
vn 0.7396 0.4052 -0.5374
vn 0.7396 0.4052 0.5374
vn -0.2825 0.4052 0.8695
vn -0.2686 0.4945 0.8266
vn 0.7032 0.4945 0.5109
vn 0.7032 0.4945 -0.5109
vn -0.2686 0.4945 -0.8266
vn -0.8692 0.4945 -0.0000
vn -0.3624 0.9320 -0.0000
vn -0.1120 0.9320 -0.3447
vn 0.2932 0.9320 -0.2130
vn 0.2932 0.9320 0.2130
vn -0.1120 0.9320 0.3447
usemtl None
s off
f 1/1/1 2/2/1 3/3/1
f 2/2/2 1/4/2 6/5/2
f 1/6/3 3/7/3 4/8/3
f 1/9/4 4/8/4 5/10/4
f 1/11/5 5/10/5 6/5/5
f 2/2/6 6/5/6 11/12/6
f 3/3/7 2/2/7 7/13/7
f 4/8/8 3/7/8 8/14/8
f 5/10/9 4/8/9 9/15/9
f 6/5/10 5/10/10 10/16/10
f 2/2/11 11/12/11 13/17/11 7/13/11
f 3/3/12 7/13/12 14/18/12 8/19/12
f 4/8/13 8/14/13 15/20/13 9/15/13
f 5/10/14 9/15/14 16/21/14 10/16/14
f 6/5/15 10/16/15 17/22/15 11/12/15
f 7/13/16 13/17/16 18/23/16
f 8/19/17 14/18/17 20/24/17
f 9/15/18 15/20/18 21/25/18
f 10/16/19 16/21/19 22/26/19
f 11/12/20 17/22/20 19/27/20
f 19/27/21 28/28/21 23/29/21
f 19/27/20 17/22/20 22/30/20 28/28/20
f 17/22/20 10/16/20 22/30/20
f 22/26/22 29/31/22 27/32/22
f 22/26/19 16/21/19 21/33/19 29/31/19
f 16/21/19 9/15/19 21/33/19
f 21/25/23 30/34/23 26/35/23
f 21/25/18 15/20/18 20/36/18 30/34/18
f 15/20/18 8/14/18 20/36/18
f 20/24/24 31/37/24 25/38/24
f 20/24/17 14/18/17 18/39/17 31/37/17
f 14/18/17 7/13/17 18/39/17
f 18/23/25 32/40/25 24/41/25
f 18/23/16 13/17/16 19/42/16 32/40/16
f 13/17/16 11/12/16 19/42/16
f 24/41/26 23/43/26 12/44/26
f 24/41/25 32/40/25 23/43/25
f 32/40/25 19/42/25 23/43/25
f 25/38/27 24/45/27 12/46/27
f 25/38/24 31/37/24 24/45/24
f 31/37/24 18/39/24 24/45/24
f 26/35/28 25/47/28 12/48/28
f 26/35/23 30/34/23 25/47/23
f 30/34/23 20/36/23 25/47/23
f 27/32/29 26/49/29 12/50/29
f 27/32/22 29/31/22 26/49/22
f 29/31/22 21/33/22 26/49/22
f 23/29/30 27/51/30 12/52/30
f 23/29/21 28/28/21 27/51/21
f 28/28/21 22/30/21 27/51/21
o Torus
v 1.221410 1.274428 -0.887406
v 1.119626 1.492341 -0.813456
v 0.916058 1.492341 -0.665555
v 0.814273 1.274428 -0.591604
v 0.916058 1.056515 -0.665555
v 1.119626 1.056515 -0.813456
v -0.466537 1.274428 -1.435854
v -0.427659 1.492341 -1.316199
v -0.349903 1.492341 -1.076890
v -0.311025 1.274428 -0.957236
v -0.349903 1.056515 -1.076890
v -0.427659 1.056515 -1.316199
v -1.509746 1.274428 0.000000
v -1.383934 1.492341 0.000000
v -1.132309 1.492341 0.000000
v -1.006497 1.274428 0.000000
v -1.132309 1.056515 0.000000
v -1.383934 1.056515 0.000000
v -0.466538 1.274428 1.435853
v -0.427659 1.492341 1.316199
v -0.349903 1.492341 1.076890
v -0.311025 1.274428 0.957236
v -0.349903 1.056515 1.076890
v -0.427659 1.056515 1.316199
v 1.221410 1.274428 0.887406
v 1.119626 1.492341 0.813456
v 0.916058 1.492341 0.665555
v 0.814273 1.274428 0.591604
v 0.916058 1.056515 0.665555
v 1.119626 1.056515 0.813456
vt 0.600000 0.500000
vt 0.800000 0.500000
vt 0.800000 0.666667
vt 0.600000 0.666667
vt 0.800000 0.833333
vt 0.600000 0.833333
vt 0.800000 1.000000
vt 0.600000 1.000000
vt 0.600000 -0.000000
vt 0.800000 -0.000000
vt 0.800000 0.166667
vt 0.600000 0.166667
vt 0.800000 0.333333
vt 0.600000 0.333333
vt 1.000000 0.500000
vt 1.000000 0.666667
vt 1.000000 0.833333
vt 1.000000 1.000000
vt 1.000000 -0.000000
vt 1.000000 0.166667
vt 1.000000 0.333333
vt 0.000000 0.500000
vt 0.200000 0.500000
vt 0.200000 0.666667
vt 0.000000 0.666667
vt 0.200000 0.833333
vt 0.000000 0.833333
vt 0.200000 1.000000
vt 0.000000 1.000000
vt 0.000000 -0.000000
vt 0.200000 -0.000000
vt 0.200000 0.166667
vt 0.000000 0.166667
vt 0.200000 0.333333
vt 0.000000 0.333333
vt 0.400000 0.500000
vt 0.400000 0.666667
vt 0.400000 0.833333
vt 0.400000 1.000000
vt 0.400000 -0.000000
vt 0.400000 0.166667
vt 0.400000 0.333333
vn 0.2800 0.4232 -0.8617
vn 0.0000 1.0000 0.0000
vn -0.2800 0.4232 0.8617
vn -0.2800 -0.4232 0.8617
vn 0.0000 -1.0000 0.0000
vn 0.2800 -0.4232 -0.8617
vn -0.7330 0.4232 -0.5326
vn 0.7330 0.4232 0.5326
vn 0.7330 -0.4232 0.5326
vn -0.7330 -0.4232 -0.5326
vn -0.7330 0.4232 0.5326
vn 0.7330 0.4232 -0.5326
vn 0.7330 -0.4232 -0.5326
vn -0.7330 -0.4232 0.5326
vn 0.2800 0.4232 0.8617
vn -0.2800 0.4232 -0.8617
vn -0.2800 -0.4232 -0.8617
vn 0.2800 -0.4232 0.8617
vn 0.9060 0.4232 -0.0000
vn -0.9060 0.4232 0.0000
vn -0.9060 -0.4232 0.0000
vn 0.9060 -0.4232 -0.0000
usemtl None
s off
f 33/53/31 39/54/31 40/55/31 34/56/31
f 34/56/32 40/55/32 41/57/32 35/58/32
f 35/58/33 41/57/33 42/59/33 36/60/33
f 36/61/34 42/62/34 43/63/34 37/64/34
f 37/64/35 43/63/35 44/65/35 38/66/35
f 38/66/36 44/65/36 39/54/36 33/53/36
f 39/54/37 45/67/37 46/68/37 40/55/37
f 40/55/32 46/68/32 47/69/32 41/57/32
f 41/57/38 47/69/38 48/70/38 42/59/38
f 42/62/39 48/71/39 49/72/39 43/63/39
f 43/63/35 49/72/35 50/73/35 44/65/35
f 44/65/40 50/73/40 45/67/40 39/54/40
f 45/74/41 51/75/41 52/76/41 46/77/41
f 46/77/32 52/76/32 53/78/32 47/79/32
f 47/79/42 53/78/42 54/80/42 48/81/42
f 48/82/43 54/83/43 55/84/43 49/85/43
f 49/85/35 55/84/35 56/86/35 50/87/35
f 50/87/44 56/86/44 51/75/44 45/74/44
f 51/75/45 57/88/45 58/89/45 52/76/45
f 52/76/32 58/89/32 59/90/32 53/78/32
f 53/78/46 59/90/46 60/91/46 54/80/46
f 54/83/47 60/92/47 61/93/47 55/84/47
f 55/84/35 61/93/35 62/94/35 56/86/35
f 56/86/48 62/94/48 57/88/48 51/75/48
f 57/88/49 33/53/49 34/56/49 58/89/49
f 58/89/32 34/56/32 35/58/32 59/90/32
f 59/90/50 35/58/50 36/60/50 60/91/50
f 60/92/51 36/61/51 37/64/51 61/93/51
f 61/93/35 37/64/35 38/66/35 62/94/35
f 62/94/52 38/66/52 33/53/52 57/88/52
o Cylinder
v -1.335542 -0.487485 0.220852
v -1.335542 1.273240 0.220852
v -1.499172 -0.487485 0.004366
v -1.499172 1.273240 0.004366
v -1.343847 -0.487485 -0.218154
v -1.343847 1.273240 -0.218154
v -1.084220 -0.381555 -0.139193
v -1.084220 1.273240 -0.139193
v -1.079087 -0.487485 0.132128
v -1.079087 1.273240 0.132128
vt 1.000000 0.500000
vt 1.000000 1.000000
vt 0.800000 1.000000
vt 0.800000 0.500000
vt 0.600000 1.000000
vt 0.600000 0.500000
vt 0.400000 1.000000
vt 0.400000 0.500000
vt 0.478254 0.324164
vt 0.250000 0.490000
vt 0.021746 0.324164
vt 0.108932 0.055836
vt 0.391068 0.055836
vt 0.200000 1.000000
vt 0.200000 0.500000
vt 0.000000 1.000000
vt 0.000000 0.500000
vt 0.750000 0.490000
vt 0.978254 0.324164
vt 0.891068 0.055836
vt 0.608932 0.055836
vt 0.521746 0.324164
vn -0.7978 0.0000 0.6030
vn -0.8200 0.0000 -0.5724
vn 0.2910 0.0000 -0.9567
vn 0.0000 1.0000 -0.0000
vn 0.9998 0.0000 -0.0189
vn 0.3270 0.0000 0.9450
vn 0.1440 -0.9836 -0.1089
usemtl None
s off
f 63/95/53 64/96/53 66/97/53 65/98/53
f 65/98/54 66/97/54 68/99/54 67/100/54
f 67/100/55 68/99/55 70/101/55 69/102/55
f 66/103/56 64/104/56 72/105/56 70/106/56 68/107/56
f 69/102/57 70/101/57 72/108/57 71/109/57
f 71/109/58 72/108/58 64/110/58 63/111/58
f 63/112/59 65/113/59 67/114/59 69/115/59 71/116/59
o Cylinder.001
v 1.210289 -0.487485 0.606338
v 1.210289 1.273240 0.606338
v 1.215423 -0.487485 0.877659
v 1.215423 1.273240 0.877659
v 0.958968 -0.487485 0.966383
v 0.958968 1.273240 0.966383
v 0.795337 -0.381555 0.749897
v 0.795337 1.273240 0.749897
v 0.950662 -0.487485 0.527377
v 0.950662 1.273240 0.527377
v 1.087195 -0.487485 0.922021
v 1.087195 1.273240 0.922021
v 1.151309 1.273240 0.899840
v 1.151309 -0.487485 0.899840
v 1.119252 -0.487485 0.910931
v 1.119252 1.273240 0.910931
vt 1.000000 0.500000
vt 1.000000 1.000000
vt 0.800000 1.000000
vt 0.800000 0.500000
vt 0.700000 0.500000
vt 0.700000 1.000000
vt 0.600000 1.000000
vt 0.600000 0.500000
vt 0.400000 1.000000
vt 0.400000 0.500000
vt 0.478254 0.324164
vt 0.250000 0.490000
vt 0.021746 0.324164
vt 0.108932 0.055836
vt 0.391068 0.055836
vt 0.434661 0.190000
vt 0.445559 0.223541
vt 0.456457 0.257082
vt 0.200000 1.000000
vt 0.200000 0.500000
vt 0.000000 1.000000
vt 0.000000 0.500000
vt 0.750000 0.490000
vt 0.978254 0.324164
vt 0.956457 0.257082
vt 0.945559 0.223541
vt 0.934661 0.190000
vt 0.891068 0.055836
vt 0.608932 0.055836
vt 0.521746 0.324164
vt 0.725000 0.500000
vt 0.725000 1.000000
vt 0.750000 1.000000
vt 0.750000 0.500000
vn 0.9998 0.0000 -0.0189
vn 0.3270 0.0000 0.9450
vn -0.7978 0.0000 0.6030
vn 0.0000 1.0000 -0.0000
vn -0.8200 0.0000 -0.5724
vn 0.2910 0.0000 -0.9567
vn -0.1805 -0.9836 0.0034
usemtl None
s off
f 73/117/60 74/118/60 76/119/60 75/120/60
f 83/121/61 84/122/61 78/123/61 77/124/61
f 77/124/62 78/123/62 80/125/62 79/126/62
f 76/127/63 74/128/63 82/129/63 80/130/63 78/131/63 84/132/63 88/133/63 85/134/63
f 79/126/64 80/125/64 82/135/64 81/136/64
f 81/136/65 82/135/65 74/137/65 73/138/65
f 73/139/66 75/140/66 86/141/66 87/142/66 83/143/66 77/144/66 79/145/66 81/146/66
f 87/147/61 88/148/61 84/122/61 83/121/61
f 75/120/61 76/119/61 85/149/61 86/150/61
f 86/150/61 85/149/61 88/148/61 87/147/61
o Cylinder.002
v -0.202662 -0.487485 1.338423
v -0.202662 1.273240 1.338423
v -0.459117 -0.487485 1.427147
v -0.459117 1.273240 1.427147
v -0.622748 -0.487485 1.210661
v -0.622748 1.273240 1.210661
v -0.467422 -0.381555 0.988141
v -0.467422 1.273240 0.988141
v -0.207795 -0.487485 1.067102
v -0.207795 1.273240 1.067102
vt 1.000000 0.500000
vt 1.000000 1.000000
vt 0.800000 1.000000
vt 0.800000 0.500000
vt 0.600000 1.000000
vt 0.600000 0.500000
vt 0.400000 1.000000
vt 0.400000 0.500000
vt 0.478254 0.324164
vt 0.250000 0.490000
vt 0.021746 0.324164
vt 0.108932 0.055836
vt 0.391068 0.055836
vt 0.200000 1.000000
vt 0.200000 0.500000
vt 0.000000 1.000000
vt 0.000000 0.500000
vt 0.750000 0.490000
vt 0.978254 0.324164
vt 0.891068 0.055836
vt 0.608932 0.055836
vt 0.521746 0.324164
vn 0.3270 0.0000 0.9450
vn -0.7978 0.0000 0.6030
vn -0.8200 0.0000 -0.5724
vn 0.0000 1.0000 0.0000
vn 0.2910 0.0000 -0.9567
vn 0.9998 0.0000 -0.0189
vn -0.0590 -0.9836 -0.1706
usemtl None
s off
f 89/151/67 90/152/67 92/153/67 91/154/67
f 91/154/68 92/153/68 94/155/68 93/156/68
f 93/156/69 94/155/69 96/157/69 95/158/69
f 92/159/70 90/160/70 98/161/70 96/162/70 94/163/70
f 95/158/71 96/157/71 98/164/71 97/165/71
f 97/165/72 98/164/72 90/166/72 89/167/72
f 89/168/73 91/169/73 93/170/73 95/171/73 97/172/73
o Cylinder.003
v 0.950662 -0.487485 -0.963685
v 0.950662 1.273240 -0.963685
v 1.210289 -0.487485 -0.884724
v 1.210289 1.273240 -0.884724
v 1.215422 -0.487485 -0.613404
v 1.215422 1.273240 -0.613404
v 0.958967 -0.381555 -0.524679
v 0.958967 1.273240 -0.524679
v 0.795337 -0.487485 -0.741165
v 0.795337 1.273240 -0.741165
vt 1.000000 0.500000
vt 1.000000 1.000000
vt 0.800000 1.000000
vt 0.800000 0.500000
vt 0.600000 1.000000
vt 0.600000 0.500000
vt 0.400000 1.000000
vt 0.400000 0.500000
vt 0.478254 0.324164
vt 0.250000 0.490000
vt 0.021746 0.324164
vt 0.108932 0.055836
vt 0.391068 0.055836
vt 0.200000 1.000000
vt 0.200000 0.500000
vt 0.000000 1.000000
vt 0.000000 0.500000
vt 0.750000 0.490000
vt 0.978254 0.324164
vt 0.891068 0.055836
vt 0.608932 0.055836
vt 0.521746 0.324164
vn 0.2910 0.0000 -0.9567
vn 0.9998 0.0000 -0.0189
vn 0.3270 0.0000 0.9450
vn 0.0000 1.0000 -0.0000
vn -0.7978 0.0000 0.6030
vn -0.8200 0.0000 -0.5724
vn -0.0525 -0.9836 0.1727
usemtl None
s off
f 99/173/74 100/174/74 102/175/74 101/176/74
f 101/176/75 102/175/75 104/177/75 103/178/75
f 103/178/76 104/177/76 106/179/76 105/180/76
f 102/181/77 100/182/77 108/183/77 106/184/77 104/185/77
f 105/180/78 106/179/78 108/186/78 107/187/78
f 107/187/79 108/186/79 100/188/79 99/189/79
f 99/190/80 101/191/80 103/192/80 105/193/80 107/194/80
o Cylinder.004
v -0.622748 -0.487485 -1.201928
v -0.622748 1.273240 -1.201928
v -0.467423 -0.487485 -1.424448
v -0.467423 1.273240 -1.424448
v -0.207795 -0.487485 -1.345487
v -0.207795 1.273240 -1.345487
v -0.202662 -0.381555 -1.074167
v -0.202662 1.273240 -1.074167
v -0.459117 -0.487485 -0.985443
v -0.459117 1.273240 -0.985443
vt 1.000000 0.500000
vt 1.000000 1.000000
vt 0.800000 1.000000
vt 0.800000 0.500000
vt 0.600000 1.000000
vt 0.600000 0.500000
vt 0.400000 1.000000
vt 0.400000 0.500000
vt 0.478254 0.324164
vt 0.250000 0.490000
vt 0.021746 0.324164
vt 0.108932 0.055836
vt 0.391068 0.055836
vt 0.200000 1.000000
vt 0.200000 0.500000
vt 0.000000 1.000000
vt 0.000000 0.500000
vt 0.750000 0.490000
vt 0.978254 0.324164
vt 0.891068 0.055836
vt 0.608932 0.055836
vt 0.521746 0.324164
vn -0.8200 0.0000 -0.5724
vn 0.2910 0.0000 -0.9567
vn 0.9998 0.0000 -0.0189
vn 0.0000 1.0000 -0.0000
vn 0.3270 0.0000 0.9450
vn -0.7978 0.0000 0.6030
vn 0.1480 -0.9836 0.1033
usemtl None
s off
f 109/195/81 110/196/81 112/197/81 111/198/81
f 111/198/82 112/197/82 114/199/82 113/200/82
f 113/200/83 114/199/83 116/201/83 115/202/83
f 112/203/84 110/204/84 118/205/84 116/206/84 114/207/84
f 115/202/85 116/201/85 118/208/85 117/209/85
f 117/209/86 118/208/86 110/210/86 109/211/86
f 109/212/87 111/213/87 113/214/87 115/215/87 117/216/87
o Torus.001
v 1.162697 0.255172 -0.844749
v 1.109847 0.368320 -0.806351
v 1.004148 0.368320 -0.729556
v 0.951298 0.255172 -0.691158
v 1.004148 0.142024 -0.729556
v 1.109847 0.142024 -0.806351
v -0.444111 0.255172 -1.366832
v -0.423924 0.368320 -1.304704
v -0.383550 0.368320 -1.180446
v -0.363363 0.255172 -1.118318
v -0.383550 0.142024 -1.180446
v -0.423924 0.142024 -1.304704
v -1.437173 0.255172 0.000000
v -1.371847 0.368320 0.000000
v -1.241195 0.368320 0.000000
v -1.175869 0.255172 0.000000
v -1.241195 0.142024 0.000000
v -1.371847 0.142024 0.000000
v -0.444111 0.255172 1.366832
v -0.423924 0.368320 1.304703
v -0.383551 0.368320 1.180446
v -0.363364 0.255172 1.118317
v -0.383551 0.142024 1.180446
v -0.423924 0.142024 1.304703
v 1.162697 0.255172 0.844749
v 1.109847 0.368320 0.806351
v 1.004148 0.368320 0.729556
v 0.951298 0.255172 0.691158
v 1.004148 0.142024 0.729556
v 1.109847 0.142024 0.806351
vt 0.600000 0.500000
vt 0.800000 0.500000
vt 0.800000 0.666667
vt 0.600000 0.666667
vt 0.800000 0.833333
vt 0.600000 0.833333
vt 0.800000 1.000000
vt 0.600000 1.000000
vt 0.600000 -0.000000
vt 0.800000 -0.000000
vt 0.800000 0.166667
vt 0.600000 0.166667
vt 0.800000 0.333333
vt 0.600000 0.333333
vt 1.000000 0.500000
vt 1.000000 0.666667
vt 1.000000 0.833333
vt 1.000000 1.000000
vt 1.000000 -0.000000
vt 1.000000 0.166667
vt 1.000000 0.333333
vt 0.000000 0.500000
vt 0.200000 0.500000
vt 0.200000 0.666667
vt 0.000000 0.666667
vt 0.200000 0.833333
vt 0.000000 0.833333
vt 0.200000 1.000000
vt 0.000000 1.000000
vt 0.000000 -0.000000
vt 0.200000 -0.000000
vt 0.200000 0.166667
vt 0.000000 0.166667
vt 0.200000 0.333333
vt 0.000000 0.333333
vt 0.400000 0.500000
vt 0.400000 0.666667
vt 0.400000 0.833333
vt 0.400000 1.000000
vt 0.400000 -0.000000
vt 0.400000 0.166667
vt 0.400000 0.333333
vn 0.2800 0.4232 -0.8617
vn 0.0000 1.0000 -0.0000
vn -0.2800 0.4232 0.8617
vn -0.2800 -0.4232 0.8617
vn 0.0000 -1.0000 0.0000
vn 0.2800 -0.4232 -0.8617
vn -0.7330 0.4232 -0.5326
vn 0.7330 0.4232 0.5326
vn 0.7330 -0.4232 0.5326
vn -0.7330 -0.4232 -0.5326
vn -0.7330 0.4232 0.5326
vn 0.7330 0.4232 -0.5326
vn 0.7330 -0.4232 -0.5326
vn -0.7330 -0.4232 0.5326
vn 0.2800 0.4232 0.8617
vn -0.2800 0.4232 -0.8617
vn -0.2800 -0.4232 -0.8617
vn 0.2800 -0.4232 0.8617
vn 0.9060 0.4232 -0.0000
vn -0.9060 0.4232 0.0000
vn -0.9060 -0.4232 0.0000
vn 0.9060 -0.4232 -0.0000
usemtl None
s off
f 119/217/88 125/218/88 126/219/88 120/220/88
f 120/220/89 126/219/89 127/221/89 121/222/89
f 121/222/90 127/221/90 128/223/90 122/224/90
f 122/225/91 128/226/91 129/227/91 123/228/91
f 123/228/92 129/227/92 130/229/92 124/230/92
f 124/230/93 130/229/93 125/218/93 119/217/93
f 125/218/94 131/231/94 132/232/94 126/219/94
f 126/219/89 132/232/89 133/233/89 127/221/89
f 127/221/95 133/233/95 134/234/95 128/223/95
f 128/226/96 134/235/96 135/236/96 129/227/96
f 129/227/92 135/236/92 136/237/92 130/229/92
f 130/229/97 136/237/97 131/231/97 125/218/97
f 131/238/98 137/239/98 138/240/98 132/241/98
f 132/241/89 138/240/89 139/242/89 133/243/89
f 133/243/99 139/242/99 140/244/99 134/245/99
f 134/246/100 140/247/100 141/248/100 135/249/100
f 135/249/92 141/248/92 142/250/92 136/251/92
f 136/251/101 142/250/101 137/239/101 131/238/101
f 137/239/102 143/252/102 144/253/102 138/240/102
f 138/240/89 144/253/89 145/254/89 139/242/89
f 139/242/103 145/254/103 146/255/103 140/244/103
f 140/247/104 146/256/104 147/257/104 141/248/104
f 141/248/92 147/257/92 148/258/92 142/250/92
f 142/250/105 148/258/105 143/252/105 137/239/105
f 143/252/106 119/217/106 120/220/106 144/253/106
f 144/253/89 120/220/89 121/222/89 145/254/89
f 145/254/107 121/222/107 122/224/107 146/255/107
f 146/256/108 122/225/108 123/228/108 147/257/108
f 147/257/92 123/228/92 124/230/92 148/258/92
f 148/258/109 124/230/109 119/217/109 143/252/109
