# Blender v3.0.1 OBJ File: ''
# www.blender.org
mtllib 0.mtl
o Low_Poly_Rock_Low_Poly_Rock_Mesh.009
v -2.684872 -25.185944 2.568599
v -2.907042 -2.670128 3.473930
v -2.505528 -30.582006 1.969038
v -2.559197 -34.311897 -1.711902
v -3.163133 -6.074108 2.244595
v -3.243007 -14.257607 0.544778
v -3.358502 -5.988049 0.540198
v -1.090917 -35.304352 2.571978
v -1.122319 -25.895758 2.730215
v -1.073911 -12.473675 3.737870
v -1.164866 -2.880373 3.713104
v -1.110475 -12.133365 2.981943
v -1.122319 -36.411507 1.965436
v -1.122319 -25.895758 1.965436
v -3.700651 8.511748 2.536914
v -3.703461 14.255342 2.825813
v -2.334077 15.824659 3.690707
v -2.779641 5.540669 2.540467
v -2.165510 18.741871 2.502007
v -3.842608 19.564276 1.190522
v -3.213549 17.445683 2.302610
v -3.129870 19.991249 1.105049
v -2.550291 37.935303 1.063282
v -2.843079 28.595028 0.961652
v -0.725786 18.805660 4.247144
v 0.064012 20.561604 3.135250
v -1.946985 31.168329 3.463233
v -1.982697 31.462984 1.774236
v 0.018251 41.058006 1.658765
v -1.732208 33.131748 0.726486
v -1.695910 39.110775 0.818254
v 0.029792 31.411840 1.701811
v 0.028784 33.859688 1.111963
v 0.081047 42.412319 1.092678
v -2.938676 -28.763712 -1.476092
v -3.585825 -18.312742 -0.905566
v -3.940639 17.737204 -0.267462
v -3.841742 11.413980 -2.225508
v -3.147084 -18.744648 -1.038494
v -2.447190 -22.718605 -3.407298
v -3.416666 -17.291981 -2.623265
v -2.678673 -19.012753 -2.907419
v -1.402705 -39.055210 -2.155005
v -1.409115 -28.763712 -1.762887
v 0.082950 -41.346260 -1.752261
v 0.093673 -27.027929 -1.693826
v -1.695906 -25.895758 -2.623265
v -1.982697 -23.027803 -3.483643
v 0.024854 -40.235443 -2.623265
v 0.358225 -26.891775 -3.008578
v -1.839303 -17.291937 -3.053454
v -1.025918 5.824392 -2.973084
v -1.839303 -17.291937 -3.627041
v -1.035991 5.926067 -3.703200
v -0.237287 -12.495502 -3.142692
v -0.240068 -10.508265 -3.799802
v -3.990256 19.991249 -2.049675
v -3.129870 19.991249 -0.328919
v -3.129870 11.387391 -2.049675
v -2.843077 19.991249 -2.049675
v -3.119287 29.570005 -0.335310
v -2.371133 26.013861 -2.564985
v -2.991562 11.644601 -2.650390
v -1.174145 36.861286 -2.264711
v 0.868255 42.219486 -0.610518
v -0.282653 37.434639 -1.826895
v -0.756529 22.625156 -3.022903
v -0.570319 27.416780 -3.443326
v -0.405335 31.462984 -2.766659
v 0.965812 -27.780533 3.302566
v 1.173567 -37.096027 2.518036
v 1.745618 -25.895758 3.686191
v 1.456478 -29.422064 2.321986
v 1.028629 -15.858004 3.829589
v 1.187708 2.615751 4.351776
v 0.980830 -16.335995 3.399404
v 0.949063 6.122079 2.519635
v 1.745618 -14.424026 3.686191
v 1.745618 -17.291950 2.539018
v -0.390448 -41.196178 0.388949
v 1.733854 -34.222256 2.211120
v 2.103311 -28.352230 -1.413529
v 0.911494 -18.126713 1.409602
v 0.789636 -8.688118 1.391845
v 0.640994 -8.315391 0.531784
v 3.620463 -4.094697 2.226735
v 3.191121 -26.947805 2.498692
v 3.201156 -16.429363 2.227339
v 3.182517 -11.534954 -0.039888
v 3.846539 -4.881896 0.865147
v 3.753168 -14.424026 2.252223
v 3.782282 -11.478747 -0.043891
v 2.019164 19.837685 4.283421
v 2.032413 2.783613 4.403180
v 2.197970 6.994400 2.217331
v 2.032411 17.123299 2.825813
v 1.714115 26.591291 2.668906
v 0.607426 2.562219 0.521218
v 2.032413 31.462984 0.674860
v 2.032413 40.066757 0.674860
v 4.164692 12.600995 0.859452
v 4.280333 11.367723 1.686154
v 4.088866 22.392082 -1.141244
v 3.743236 25.210617 1.425632
v 2.065183 -40.400185 -1.442530
v 0.598444 -0.084343 -0.615706
v 0.598444 -0.084343 -2.049675
v 2.030181 3.907407 -0.644838
v 1.745618 -0.084343 -1.619486
v 0.328867 -28.923433 -3.538498
v 2.049091 -27.388990 -3.192445
v 0.311649 -8.688118 -3.196847
v 0.311649 -8.688118 -4.057234
v 2.075545 -14.744516 -3.500325
v 2.347094 -0.097000 -3.886949
v 2.888657 -28.013781 -2.866826
v 3.844176 -5.544020 -0.021425
v 3.258428 -4.048860 -1.485915
v 2.832599 -14.581437 -3.065244
v 0.598444 8.519435 -0.615706
v 0.885236 5.651522 -2.049675
v 1.188966 14.837395 -1.980109
v 1.745618 5.651522 -1.691185
v 0.885231 34.330936 -0.615706
v 0.889193 31.991898 -1.786673
v 0.885231 40.066757 -1.762887
v 2.028665 31.964447 -0.607354
v 2.032413 40.066757 -0.615706
v 1.215526 7.328905 -3.828014
v 2.213492 7.594361 -3.689268
v 1.458822 16.167316 -2.623265
v 1.228997 14.163609 -3.542535
v 1.457074 25.865318 -3.467161
v 1.458822 26.683064 -2.623265
v 3.495928 28.218344 -0.900676
v 3.336766 21.406067 -1.456320
v 4.120473 -4.571702 -1.720384
v 3.225536 22.827417 -2.652720
vn -0.9977 -0.0401 0.0551
vn -0.9990 -0.0094 0.0441
vn -0.9974 -0.0040 0.0721
vn -0.1475 0.4250 0.8931
vn -0.9994 0.0315 -0.0143
vn -0.8834 0.4586 0.0967
vn 0.0361 0.0045 0.9993
vn -0.3253 -0.0010 0.9456
vn -0.3793 0.0681 0.9227
vn -0.7759 0.6028 0.1860
vn -0.4268 0.2098 0.8797
vn 0.2083 0.0092 0.9780
vn -0.3431 0.0079 -0.9392
vn -0.1096 0.0005 -0.9940
vn -0.9536 -0.2484 0.1704
vn -0.9943 -0.0133 -0.1058
vn -0.4387 0.4093 -0.8000
vn -0.9786 -0.0178 -0.2048
vn -0.0740 -0.0006 -0.9973
vn -0.9325 0.0424 -0.3586
vn -0.2412 0.0162 -0.9703
vn 0.4571 0.0059 0.8894
vn -0.8275 0.4487 0.3375
vn -0.0516 0.0018 0.9987
vn 0.8194 -0.5728 -0.0222
vn -0.3440 0.0117 0.9389
vn 0.1668 0.7300 -0.6628
vn 0.4991 -0.4601 0.7343
vn 0.6401 -0.3855 -0.6646
vn 0.6268 0.2597 0.7346
vn 0.9951 0.0403 0.0897
vn 0.9751 0.0291 -0.2198
vn 0.5190 -0.0069 0.8547
vn -0.0070 0.0039 -1.0000
vn 0.5032 -0.0321 -0.8636
vn 0.9415 0.0124 -0.3369
vn -0.4317 -0.7986 -0.4193
vn 0.9047 0.3533 0.2380
vn 0.3846 -0.0057 -0.9231
vn 0.9845 0.1250 -0.1232
vn 0.3056 0.0703 -0.9496
vn 0.2757 -0.0135 -0.9611
vn 0.7091 0.1834 -0.6809
vn -0.0167 0.0000 -0.9999
vn -0.2331 0.5929 0.7708
vn 0.2275 0.0130 0.9737
vn 0.5978 0.3532 0.7197
vn 0.9954 -0.0034 0.0960
vn 0.9985 -0.0084 -0.0546
vn -0.9512 0.1126 0.2872
vn -0.8975 0.2390 0.3708
vn 0.9996 0.0018 -0.0291
vn -0.0775 -0.0228 0.9967
vn -0.9918 0.0296 0.1247
vn -0.1422 0.0068 -0.9898
vn -0.9635 0.0033 0.2676
vn -0.0203 0.0000 -0.9998
vn -0.2614 0.0019 -0.9652
vn -0.1732 -0.0141 0.9848
vn 0.0026 -0.0514 0.9987
vn -0.9443 -0.2241 0.2410
vn 0.0026 0.0000 1.0000
vn -0.9997 -0.0018 0.0243
vn -0.9976 -0.0402 0.0561
vn -0.7310 -0.3118 0.6070
vn -0.9664 -0.0198 0.2563
vn 0.2584 -0.2287 0.9386
vn -0.3310 -0.0170 0.9435
vn -0.1110 -0.0181 0.9937
vn -0.9978 0.0371 0.0552
vn 0.1398 -0.0176 0.9900
vn 0.9989 -0.0021 0.0466
vn -0.2871 0.0183 -0.9577
vn -0.6785 0.3098 0.6660
vn -0.3126 0.0766 0.9468
vn -0.9995 0.0195 -0.0244
vn -0.9974 -0.0041 0.0716
vn -0.6101 0.2186 0.7615
vn 0.0312 0.9848 0.1711
vn -0.9994 0.0333 0.0010
vn 0.1115 0.0128 0.9937
vn -0.2561 -0.0307 -0.9662
vn -0.2564 0.0589 0.9648
vn -0.0246 -0.0441 0.9987
vn -0.9998 -0.0095 -0.0199
vn -0.8189 -0.5560 -0.1421
vn -0.9993 0.0349 0.0104
vn 0.8773 -0.2518 -0.4085
vn -0.2061 0.0337 -0.9779
vn -0.7831 0.1274 -0.6087
vn -0.3465 -0.3012 -0.8884
vn -0.1916 0.0102 -0.9814
vn 0.9961 -0.0114 0.0876
vn -0.9594 -0.0113 0.2820
vn -0.8700 -0.4282 -0.2445
vn -0.6162 -0.5057 -0.6038
vn 0.9771 -0.0085 -0.2124
vn -0.1004 -0.0276 -0.9946
vn -0.9646 -0.0129 -0.2633
vn -0.1981 -0.2888 -0.9367
vn -0.1752 -0.0202 -0.9843
vn 0.0943 0.0094 -0.9955
vn -0.9998 -0.0174 0.0058
vn -0.7021 0.6195 0.3511
vn -0.9974 0.0195 -0.0696
vn 0.3574 0.1485 -0.9221
vn -0.0697 0.0825 -0.9942
vn -0.9624 0.0207 -0.2708
vn -0.1629 -0.0003 -0.9866
vn -0.9769 0.0326 -0.2110
vn -0.0597 0.9225 0.3813
vn 0.9913 -0.0042 -0.1312
vn -0.9992 0.0395 0.0075
vn 0.4715 0.3349 -0.8158
vn 0.4524 -0.3538 0.8186
vn -0.6002 0.3481 -0.7202
vn 0.9976 0.0004 0.0698
vn 0.9813 0.0524 0.1849
vn 0.9365 -0.2124 -0.2790
vn -0.2802 -0.0018 0.9599
vn 0.6761 -0.3713 -0.6364
vn 0.9963 0.0024 -0.0858
vn -0.6236 0.6275 -0.4663
vn 0.8801 -0.0203 0.4744
vn 0.9963 -0.0114 -0.0856
vn -0.9939 0.0004 0.1100
vn -0.1105 -0.0221 0.9936
vn 0.0403 0.0019 0.9992
vn 0.9999 -0.0012 -0.0109
vn 0.9987 0.0056 0.0513
vn -0.5315 0.8198 -0.2134
vn 0.1217 -0.4575 -0.8809
vn -0.0621 0.0070 0.9980
vn 0.2118 0.0005 0.9773
vn 0.5694 0.3911 -0.7231
vn 0.4318 0.2835 0.8562
vn 0.1465 0.0030 -0.9892
vn 0.9830 -0.0295 -0.1815
vn 0.9426 -0.3336 -0.0122
vn -0.9897 -0.0198 0.1416
vn 0.1940 0.0228 0.9807
vn 0.1954 0.0260 0.9804
vn -0.5887 0.4480 -0.6728
vn 0.4061 -0.9009 0.1529
vn -0.9997 -0.0012 0.0229
vn 0.0309 -0.2527 0.9671
vn 0.2158 -0.0269 -0.9761
vn -0.4099 -0.8503 -0.3300
vn 0.8863 -0.0965 -0.4530
vn -0.5466 -0.6854 -0.4811
vn 0.4260 -0.0171 -0.9045
vn 0.2179 -0.0242 -0.9757
vn 0.9997 -0.0142 -0.0211
vn 0.9652 0.0002 -0.2614
vn -0.8842 -0.4257 0.1921
vn 1.0000 0.0013 0.0065
vn 0.0010 -0.0002 -1.0000
vn 0.9944 -0.0220 0.1036
vn 0.6832 0.3278 -0.6525
vn 0.3634 0.0204 -0.9314
vn -0.2731 0.7226 0.6350
vn 0.9933 -0.0098 -0.1148
vn 0.9836 -0.1551 0.0921
vn 0.9151 -0.2592 -0.3088
vn 0.9939 -0.0143 -0.1094
vn 0.5077 0.2510 -0.8241
vn -0.8725 -0.4744 0.1171
vn -0.0434 -0.0848 0.9955
vn -0.0875 -0.0274 0.9958
vn -0.2561 -0.0142 0.9665
vn 0.9441 -0.1992 -0.2626
vn -0.2656 -0.3626 0.8933
vn -0.0150 0.0047 0.9999
vn -0.0264 -0.0104 -0.9996
vn 0.0010 0.0192 -0.9998
vn 0.0481 0.0030 -0.9988
vn -0.7076 0.3292 -0.6253
vn 0.3329 0.2253 -0.9156
vn -0.9624 -0.0141 0.2714
vn -0.0067 0.0066 -1.0000
vn 0.5688 0.1164 -0.8142
vn -0.7816 0.4426 -0.4396
vn -0.0427 -0.3333 0.9419
vn 0.6295 -0.3702 0.6831
vn 0.9999 -0.0104 0.0051
vn 0.5813 -0.8038 0.1269
vn -0.9849 0.0086 -0.1730
vn 1.0000 -0.0002 -0.0015
vn -0.9974 0.0691 -0.0196
vn 0.8166 0.5487 0.1794
vn 0.9240 0.3043 0.2316
vn 0.9947 0.1002 0.0239
vn -0.9989 -0.0287 0.0372
vn 0.9851 0.0027 -0.1719
vn -0.6751 -0.0045 0.7377
vn -0.1385 -0.0216 0.9901
vn -0.4477 0.0029 -0.8942
vn -0.1020 0.0016 0.9948
vn 0.9927 -0.0199 0.1191
vn -0.3656 0.0150 0.9306
vn 0.0544 0.0162 -0.9984
vn 0.9692 0.0073 0.2463
vn 0.1241 -0.0017 -0.9923
vn 0.9945 -0.0226 0.1027
vn -0.1469 0.0104 -0.9891
usemtl None
s off
f 3//1 39//1 4//1
f 10//2 11//2 12//2
f 20//3 37//3 15//3
f 22//4 20//4 21//4
f 23//5 24//5 21//5
f 26//6 17//6 25//6
f 32//7 29//7 28//7
f 25//8 17//8 2//8
f 28//9 23//9 21//9
f 31//10 23//10 29//10
f 21//11 16//11 19//11
f 26//12 27//12 17//12
f 42//13 41//13 38//13
f 54//14 56//14 53//14
f 4//15 43//15 80//15
f 38//16 41//16 36//16
f 30//17 62//17 61//17
f 30//18 64//18 67//18
f 61//19 58//19 37//19
f 60//20 62//20 63//20
f 62//21 67//21 63//21
f 81//22 73//22 71//22
f 85//23 84//23 86//23
f 91//24 86//24 88//24
f 82//25 87//25 73//25
f 88//26 86//26 83//26
f 79//27 83//27 76//27
f 77//28 98//28 95//28
f 101//29 102//29 95//29
f 104//30 99//30 97//30
f 103//31 104//31 102//31
f 95//32 97//32 96//32
f 95//33 104//33 97//33
f 117//34 92//34 89//34
f 115//35 119//35 114//35
f 115//36 118//36 119//36
f 111//37 116//37 82//37
f 115//38 109//38 118//38
f 122//39 123//39 121//39
f 133//40 125//40 134//40
f 103//41 136//41 135//41
f 122//42 136//42 123//42
f 134//43 125//43 127//43
f 134//44 138//44 131//44
f 93//45 26//45 25//45
f 26//46 97//46 27//46
f 97//47 32//47 27//47
f 82//48 81//48 105//48
f 89//49 87//49 116//49
f 24//50 61//50 20//50
f 30//51 61//51 24//51
f 137//52 103//52 101//52
f 5//53 18//53 15//53
f 2//54 18//54 5//54
f 52//55 42//55 63//55
f 108//56 123//56 109//56
f 108//57 106//57 120//57
f 137//58 118//58 136//58
f 10//59 75//59 25//59
f 2//60 1//60 12//60 11//60
f 80//61 13//61 3//61 4//61
f 3//62 13//62 14//62
f 14//63 13//63 8//63 9//63
f 39//64 3//64 1//64 6//64
f 13//65 80//65 8//65
f 1//66 2//66 5//66
f 14//67 9//67 1//67 3//67
f 9//68 8//68 12//68
f 1//69 9//69 12//69
f 18//70 2//70 17//70 19//70
f 16//71 15//71 18//71 19//71
f 29//72 32//72 33//72 34//72
f 30//73 24//73 23//73 31//73
f 34//74 31//74 29//74
f 28//75 29//75 23//75
f 19//76 17//76 27//76 28//76
f 16//77 20//77 15//77
f 21//78 20//78 16//78
f 27//79 32//79 28//79
f 21//80 24//80 22//80
f 22//81 24//81 20//81
f 43//82 47//82 50//82 49//82
f 19//83 28//83 21//83
f 4//84 39//84 35//84
f 37//85 38//85 36//85
f 43//86 45//86 80//86
f 53//87 51//87 52//87 54//87
f 55//88 51//88 53//88 56//88
f 4//89 35//89 44//89 43//89
f 40//90 42//90 51//90 53//90
f 40//91 48//91 47//91
f 42//92 52//92 51//92
f 46//93 45//93 49//93 50//93
f 44//94 47//94 43//94
f 39//95 36//95 41//95 42//95
f 43//96 49//96 45//96
f 51//97 47//97 48//97 53//97
f 47//98 51//98 55//98 50//98
f 40//99 35//99 39//99 42//99
f 47//100 44//100 35//100 40//100
f 40//101 53//101 48//101
f 59//102 38//102 57//102 60//102
f 37//103 57//103 38//103
f 57//104 37//104 58//104 60//104
f 68//105 54//105 52//105 67//105
f 65//106 66//106 64//106
f 69//107 67//107 64//107 66//107
f 62//108 60//108 58//108 61//108
f 67//109 52//109 63//109
f 59//110 60//110 63//110
f 59//111 63//111 38//111
f 74//112 76//112 77//112 75//112
f 67//113 69//113 68//113
f 30//114 67//114 62//114
f 70//115 73//115 72//115
f 76//116 74//116 78//116 79//116
f 91//117 92//117 90//117 86//117
f 82//118 73//118 81//118
f 71//119 80//119 81//119
f 83//120 86//120 84//120
f 92//121 91//121 88//121 89//121
f 77//122 76//122 83//122 84//122
f 90//123 85//123 86//123
f 73//124 70//124 71//124
f 72//125 73//125 79//125 78//125
f 70//126 74//126 76//126
f 74//127 70//127 72//127 78//127
f 79//128 73//128 87//128 88//128
f 89//129 88//129 87//129
f 93//130 94//130 95//130 96//130
f 88//131 83//131 79//131
f 95//132 94//132 75//132 77//132
f 75//133 94//133 93//133
f 100//134 34//134 33//134 99//134
f 93//135 96//135 26//135
f 33//136 32//136 97//136 99//136
f 45//137 46//137 82//137 105//137
f 101//138 103//138 102//138
f 95//139 98//139 101//139
f 7//140 6//140 1//140 5//140
f 26//141 96//141 97//141
f 95//142 102//142 104//142
f 106//143 108//143 109//143 107//143
f 80//144 45//144 105//144
f 110//145 50//145 112//145 113//145
f 50//146 110//146 111//146
f 114//147 110//147 113//147 115//147
f 111//148 82//148 46//148 50//148
f 118//149 117//149 89//149
f 118//150 137//150 117//150
f 111//151 114//151 119//151 116//151
f 110//152 114//152 111//152
f 118//153 89//153 116//153
f 116//154 119//154 118//154
f 123//155 108//155 120//155 121//155
f 124//156 125//156 126//156 65//156
f 124//157 65//157 128//157 127//157
f 122//158 121//158 129//158 132//158
f 127//159 125//159 124//159
f 136//160 103//160 137//160
f 129//161 121//161 123//161 130//161
f 131//162 132//162 133//162 134//162
f 122//163 132//163 131//163
f 138//164 136//164 122//164 131//164
f 138//165 135//165 136//165
f 127//166 135//166 138//166 134//166
f 76//167 74//167 10//167 12//167
f 8//168 71//168 70//168
f 74//169 75//169 10//169
f 76//170 12//170 8//170 70//170
f 112//171 55//171 56//171 113//171
f 8//172 80//172 71//172
f 25//173 75//173 93//173
f 112//174 50//174 55//174
f 129//175 54//175 68//175 132//175
f 126//176 125//176 66//176
f 65//177 126//177 66//177
f 69//178 125//178 133//178 68//178
f 37//179 36//179 6//179 7//179
f 133//180 132//180 68//180
f 125//181 69//181 66//181
f 31//182 34//182 65//182 64//182
f 6//183 36//183 39//183
f 80//184 105//184 81//184
f 92//185 117//185 90//185
f 82//186 116//186 87//186
f 30//187 31//187 64//187
f 100//188 99//188 127//188 128//188
f 20//189 61//189 37//189
f 65//190 34//190 100//190 128//190
f 127//191 99//191 104//191 135//191
f 103//192 135//192 104//192
f 37//193 7//193 5//193 15//193
f 84//194 85//194 98//194 77//194
f 11//195 10//195 25//195
f 2//196 11//196 25//196
f 63//197 42//197 38//197
f 98//198 85//198 90//198 101//198
f 106//199 107//199 121//199 120//199
f 121//200 107//200 109//200 123//200
f 115//201 113//201 129//201 130//201
f 123//202 109//202 115//202 130//202
f 109//203 123//203 136//203 118//203
f 90//204 117//204 137//204 101//204
f 113//205 56//205 54//205 129//205
