# Blender v3.0.1 OBJ File: 'ingot.blend'
# www.blender.org
mtllib ingot.mtl
o Cube_Cube.001
v -0.091585 -0.008112 0.100000
v -0.098438 -0.075000 0.196875
v -0.098438 -0.075000 -0.196875
v -0.088112 0.011585 0.100000
v -0.091585 -0.008112 -0.100000
v 0.098438 -0.075000 0.196875
v -0.088112 0.011585 -0.100000
v 0.098438 -0.075000 -0.196875
v 0.091585 -0.008112 0.100000
v 0.086057 0.000000 0.175000
v 0.088112 0.011585 0.100000
v 0.087500 0.000000 0.172114
v 0.091585 -0.008112 -0.100000
v 0.092306 -0.037500 0.187500
v 0.093750 -0.037500 0.184612
v 0.088112 0.011585 -0.100000
v 0.098438 -0.056250 0.193980
v 0.096990 -0.056250 0.196875
v 0.098438 -0.057664 0.196875
v 0.095313 -0.046875 0.187733
v 0.093866 -0.046875 0.190625
v 0.087500 0.000000 -0.171769
v 0.085885 0.000000 -0.175000
v 0.093750 -0.037500 -0.184266
v 0.092133 -0.037500 -0.187500
v 0.096817 -0.056250 -0.196875
v 0.098438 -0.056250 -0.193633
v 0.098438 -0.057833 -0.196875
v 0.093693 -0.046875 -0.190625
v 0.095313 -0.046875 -0.187387
v -0.086127 0.000000 -0.175000
v -0.087500 0.000000 -0.172254
v -0.092376 -0.037500 -0.187500
v -0.093750 -0.037500 -0.184751
v -0.098438 -0.056250 -0.194120
v -0.097060 -0.056250 -0.196875
v -0.098438 -0.057595 -0.196875
v -0.095313 -0.046875 -0.187872
v -0.093936 -0.046875 -0.190625
v -0.087500 0.000000 0.171285
v -0.085642 0.000000 0.175000
v -0.093750 -0.037500 0.183782
v -0.091891 -0.037500 0.187500
v -0.096574 -0.056250 0.196875
v -0.098438 -0.056250 0.193148
v -0.098438 -0.058070 0.196875
v -0.095313 -0.046875 0.186901
v -0.093451 -0.046875 0.190625
v 0.072999 0.075000 0.147301
v 0.073778 0.073678 0.150441
v 0.073650 0.075000 0.145997
v 0.075220 0.073678 0.147556
v 0.073650 0.075000 -0.145652
v 0.075220 0.073678 -0.147211
v 0.072826 0.075000 -0.147301
v 0.073605 0.073678 -0.150441
v -0.073068 0.075000 -0.147301
v -0.073848 0.073678 -0.150441
v -0.073650 0.075000 -0.146136
v -0.075220 0.073678 -0.147695
v -0.073650 0.075000 0.145168
v -0.075220 0.073678 0.146727
v -0.072584 0.075000 0.147301
v -0.073363 0.073678 0.150441
v 0.087500 0.000000 0.100000
v 0.085642 0.011149 0.100000
v 0.085642 0.011149 -0.100000
v 0.087500 0.000000 -0.100000
v 0.088930 -0.008580 -0.100000
v 0.088930 -0.008580 0.100000
v -0.087500 0.000000 0.100000
v -0.085642 0.011149 0.100000
v -0.085642 0.011149 -0.100000
v -0.087500 0.000000 -0.100000
v -0.088930 -0.008580 0.100000
v -0.088930 -0.008580 -0.100000
vt 0.622796 0.252282
vt 0.500000 0.251962
vt 0.500000 0.248038
vt 0.622796 0.247718
vt 0.622796 0.502685
vt 0.500000 0.502308
vt 0.500000 0.497692
vt 0.622796 0.497315
vt 0.421875 0.751897
vt 0.437500 0.751925
vt 0.437500 0.997521
vt 0.421875 0.997558
vt 0.403217 1.000000
vt 0.375000 1.000000
vt 0.375000 0.750000
vt 0.403894 0.750000
vt 0.406250 0.751838
vt 0.406250 0.997633
vt 0.125000 0.500000
vt 0.375000 0.500000
vt 0.125000 0.750000
vt 0.500000 0.553571
vt 0.622796 0.747602
vt 0.500000 0.747939
vt 0.500000 0.696429
vt 0.518582 0.697795
vt 0.518582 0.552207
vt 0.485701 0.695379
vt 0.437500 0.748075
vt 0.437500 0.502156
vt 0.485701 0.554621
vt 0.437500 0.251832
vt 0.437500 0.497844
vt 0.421875 0.251805
vt 0.421875 0.497876
vt 0.421875 0.502124
vt 0.421875 0.748103
vt 0.421875 0.002442
vt 0.437500 0.002479
vt 0.437500 0.248168
vt 0.421875 0.248195
vt 0.406250 0.002367
vt 0.406250 0.248251
vt 0.404008 0.250000
vt 0.375000 0.250000
vt 0.375000 0.000000
vt 0.403217 0.000000
vt 0.406250 0.502058
vt 0.406250 0.748162
vt 0.406250 0.251749
vt 0.406250 0.497942
vt 0.403612 0.500000
vt 0.406974 0.750186
vt 0.500000 0.752061
vt 0.622796 0.752398
vt 0.622796 0.996913
vt 0.500000 0.997346
vt 0.407060 0.500209
vt 0.872751 0.745973
vt 0.870973 0.747751
vt 0.628336 0.747751
vt 0.627249 0.746664
vt 0.627249 0.503623
vt 0.628623 0.502249
vt 0.871780 0.502249
vt 0.872751 0.503220
vt 0.406939 0.250177
vt 0.500000 0.002654
vt 0.622796 0.003087
vt 0.500000 0.196429
vt 0.518582 0.197796
vt 0.518582 0.052209
vt 0.500000 0.053571
vt 0.485701 0.054620
vt 0.485700 0.195379
vt 0.406250 0.000000
vt 0.437989 0.000000
vt 0.500000 0.000000
vt 0.422365 0.000000
vt 0.437500 0.000000
vt 0.407097 0.000000
vt 0.421875 0.000000
vt 0.500489 0.000000
vt 0.622805 0.000000
vt 0.627404 0.750000
vt 0.625000 0.747596
vt 0.625000 0.502692
vt 0.627692 0.500000
vt 0.872712 0.500000
vt 0.875000 0.502288
vt 0.875000 0.746905
vt 0.871905 0.750000
vt 0.483720 0.467326
vt 0.625000 0.468652
vt 0.625000 0.500000
vt 0.375000 0.500000
vt 0.375000 0.466305
vt 0.625000 0.750000
vt 0.375000 0.750000
vt 0.483721 0.782674
vt 0.375000 0.783695
vt 0.625000 0.781348
vt 0.341305 0.750000
vt 0.341305 0.500000
vt 0.656348 0.500000
vt 0.656348 0.750000
vt 0.375000 0.000000
vt 0.625000 0.000000
vt 0.625000 0.250000
vt 0.375000 0.250000
vt 0.625000 0.281348
vt 0.483721 0.282674
vt 0.375000 0.283695
vt 0.625000 1.000000
vt 0.375000 1.000000
vt 0.375000 0.966305
vt 0.483720 0.967326
vt 0.625000 0.968652
vt 0.158695 0.750000
vt 0.125000 0.750000
vt 0.125000 0.500000
vt 0.158695 0.500000
vt 0.843652 0.500000
vt 0.875000 0.500000
vt 0.875000 0.750000
vt 0.843652 0.750000
vn -0.8571 0.2857 -0.4286
vn 0.8571 0.2857 -0.4286
vn 0.0000 0.3162 0.9487
vn -0.0000 0.0000 1.0000
vn 0.0000 -1.0000 0.0000
vn 0.9864 0.1644 -0.0000
vn 0.0000 0.3162 -0.9487
vn -0.9864 0.1644 0.0000
vn 0.0000 0.5547 0.8321
vn -1.0000 0.0000 0.0000
vn 0.9487 0.3162 0.0000
vn 0.0000 0.5547 -0.8321
vn -0.9487 0.3162 0.0000
vn 1.0000 0.0000 0.0000
vn 0.0000 0.0000 -1.0000
vn 0.6596 0.6754 0.3298
vn 0.8571 0.2857 0.4286
vn 0.7683 0.5121 0.3841
vn 0.8572 0.2855 0.4286
vn 0.6596 0.6754 -0.3298
vn 0.7683 0.5121 -0.3841
vn 0.8572 0.2855 -0.4286
vn 0.0000 1.0000 -0.0000
vn -0.6596 0.6754 -0.3298
vn -0.7683 0.5121 -0.3841
vn -0.8572 0.2855 -0.4286
vn -0.6596 0.6754 0.3298
vn -0.8572 0.2857 0.4286
vn -0.8572 0.2855 0.4286
vn -0.7683 0.5120 0.3841
vn -0.8571 0.2857 0.4286
vn 0.4764 0.8464 0.2382
vn 0.4764 0.8464 -0.2382
vn 0.6442 0.7649 0.0000
vn -0.4764 0.8464 -0.2382
vn 0.0000 0.9216 -0.3881
vn -0.4764 0.8464 0.2382
vn -0.6442 0.7649 0.0000
vn 0.0000 0.9216 0.3881
vn 0.9848 0.1736 0.0000
vn 0.1736 -0.9848 0.0000
vn -0.1736 0.9848 0.0000
vn -0.9848 0.1736 0.0000
vn -0.1736 -0.9848 0.0000
vn 0.1736 0.9848 0.0000
usemtl None
s off
f 58/1/1 31/2/1 32/3/1 60/4/1
f 54/5/2 22/6/2 23/7/2 56/8/2
f 21/9/3 14/10/3 43/11/3 48/12/3
f 46/13/4 2/14/4 6/15/4 19/16/4 18/17/4 44/18/4
f 3/19/5 8/20/5 6/15/5 2/21/5
f 68/22/6 22/6/6 54/5/6 52/23/6 12/24/6 65/25/6 66/26/6 67/27/6
f 70/28/6 65/25/6 12/24/6 15/29/6 24/30/6 22/6/6 68/22/6 69/31/6
f 33/32/7 31/2/7 23/7/7 25/33/7
f 39/34/7 33/32/7 25/33/7 29/35/7
f 30/36/6 24/30/6 15/29/6 20/37/6
f 47/38/8 42/39/8 34/40/8 38/41/8
f 18/17/9 21/9/9 48/12/9 44/18/9
f 45/42/10 35/43/10 37/44/10 3/45/10 2/46/10 46/47/10
f 27/48/11 30/36/11 20/37/11 17/49/11
f 36/50/12 39/34/12 29/35/12 26/51/12
f 45/42/13 47/38/13 38/41/13 35/43/13
f 27/48/14 17/49/14 19/16/14 6/15/14 8/20/14 28/52/14
f 36/50/15 26/51/15 28/52/15 8/20/15 3/45/15 37/44/15
f 17/49/16 18/53/16 19/16/16
f 10/54/3 50/55/3 64/56/3 41/57/3
f 10/54/17 14/10/17 15/29/17 12/24/17
f 21/9/18 18/17/18 17/49/18 20/37/18
f 14/10/19 21/9/19 20/37/19 15/29/19
f 14/10/3 10/54/3 41/57/3 43/11/3
f 26/51/20 27/58/20 28/52/20
f 31/2/7 58/1/7 56/8/7 23/7/7
f 22/6/2 24/30/2 25/33/2 23/7/2
f 30/36/21 27/48/21 26/51/21 29/35/21
f 24/30/22 30/36/22 29/35/22 25/33/22
f 61/59/23 63/60/23 49/61/23 51/62/23 53/63/23 55/64/23 57/65/23 59/66/23
f 35/43/24 36/67/24 37/44/24
f 40/68/8 62/69/8 60/4/8 32/3/8 74/70/8 73/71/8 72/72/8 71/73/8
f 31/2/1 33/32/1 34/40/1 32/3/1
f 39/34/25 36/50/25 35/43/25 38/41/25
f 33/32/26 39/34/26 38/41/26 34/40/26
f 74/70/8 32/3/8 34/40/8 42/39/8 40/68/8 71/73/8 75/74/8 76/75/8
f 44/76/27 45/42/27 46/47/27
f 43/77/28 41/78/28 40/68/28 42/39/28
f 48/79/29 43/80/29 42/39/29 47/38/29
f 44/81/30 48/82/30 47/38/30 45/42/30
f 41/83/31 64/84/31 62/69/31 40/68/31
f 51/62/32 49/61/32 50/85/32 52/86/32
f 55/64/33 53/63/33 54/87/33 56/88/33
f 52/23/34 54/5/34 53/63/34 51/62/34
f 59/66/35 57/65/35 58/89/35 60/90/35
f 56/88/36 58/89/36 57/65/36 55/64/36
f 63/60/37 61/59/37 62/91/37 64/92/37
f 61/59/38 59/66/38 60/90/38 62/91/38
f 49/61/39 63/60/39 64/92/39 50/85/39
f 50/55/17 10/54/17 12/24/17 52/23/17
f 68/93/15 67/94/15 16/95/15 13/96/15 69/97/15
f 13/96/40 16/95/40 11/98/40 9/99/40
f 65/100/4 70/101/4 9/99/4 11/98/4 66/102/4
f 13/96/41 9/99/41 70/103/41 69/104/41
f 11/98/42 16/95/42 67/105/42 66/106/42
f 1/107/43 4/108/43 7/109/43 5/110/43
f 5/110/15 7/109/15 73/111/15 74/112/15 76/113/15
f 4/114/4 1/115/4 75/116/4 71/117/4 72/118/4
f 75/119/44 1/120/44 5/121/44 76/122/44
f 73/123/45 7/124/45 4/125/45 72/126/45
