# Blender v3.0.1 OBJ File: 'mushroom_stem.blend'
# www.blender.org
mtllib mushroom_stem.mtl
o Cube_Cube.005
v -0.230087 0.324781 0.621617
v -0.202479 0.429207 0.640464
v 0.232754 -0.046574 -0.936616
v 0.238212 0.053426 -1.080651
v 0.235589 0.325147 0.600260
v 0.325978 0.428901 0.615176
v 0.485110 -0.052741 -0.787251
v 0.443869 0.047259 -0.759595
v -0.232323 -0.046465 -0.250000
v -0.232323 0.046465 -0.250000
v 0.267677 -0.053535 -0.250000
v 0.232323 0.046465 -0.250000
v -0.267344 -0.025661 0.320791
v 0.268023 0.075636 0.181880
v -0.268023 0.075636 0.181880
v 0.267344 -0.025661 0.320791
v -0.154763 0.046539 -0.611904
v 0.263840 -0.053881 -0.495225
v -0.170092 -0.053461 -0.742560
v 0.263840 0.053881 -0.495225
v -0.003712 0.053470 -0.978631
v 0.334881 -0.053524 -0.529698
v 0.005506 -0.046530 -0.839442
v 0.330135 0.046476 -0.670302
v -0.220462 -0.046730 -0.450688
v 0.267677 0.053535 -0.500000
v -0.249148 0.053270 -0.549312
v 0.232323 -0.046465 -0.500000
v -0.267677 0.053535 0.000000
v 0.267677 -0.053535 0.000000
v -0.232323 -0.046465 0.000000
v 0.232323 0.046465 0.000000
v -0.232381 0.100258 0.429246
v 0.267788 0.200223 0.429881
v -0.232212 0.199777 0.570119
v 0.232381 0.100258 0.429246
v -0.232206 0.124636 0.444863
v 0.232438 0.025369 0.304215
v -0.267562 0.024631 0.445785
v 0.232206 0.124636 0.444863
v -0.232406 0.200149 0.554023
v 0.230527 0.300081 0.650416
v -0.234804 0.299744 0.666966
v 0.267529 0.199846 0.696230
v -0.235217 -0.046822 0.075374
v 0.271865 0.051910 0.095168
v -0.271865 0.051910 0.095168
v 0.235217 -0.046822 0.075374
v -0.267677 0.053535 -0.125000
v 0.267677 -0.053535 -0.125000
v -0.232323 -0.046465 -0.125000
v 0.267677 0.053535 -0.125000
v -0.268304 -0.053300 -0.391711
v 0.267677 0.053535 -0.374870
v -0.268304 0.053300 -0.391711
v 0.232323 -0.046465 -0.374870
v -0.194221 0.046518 -0.524743
v 0.236150 -0.045991 -0.547376
v -0.213118 -0.053482 -0.646756
v 0.236150 0.045991 -0.547376
v -0.087253 -0.046494 -0.717833
v 0.285423 0.053598 -0.506669
v -0.087253 0.046494 -0.717833
v 0.285423 -0.053598 -0.506669
v 0.147233 0.046599 -0.953313
v 0.410900 -0.046694 -0.719622
v 0.144485 -0.053401 -1.099509
v 0.410900 0.046694 -0.719622
vt 0.375000 0.234375
vt 0.625000 0.234375
vt 0.625000 0.250000
vt 0.375000 0.250000
vt 0.625000 0.500000
vt 0.375000 0.500000
vt 0.375000 0.734375
vt 0.625000 0.734375
vt 0.625000 0.750000
vt 0.375000 0.750000
vt 0.625000 1.000000
vt 0.375000 1.000000
vt 0.125000 0.734375
vt 0.125000 0.750000
vt 0.875000 0.734375
vt 0.875000 0.750000
vt 0.625000 0.609391
vt 0.875000 0.609391
vt 0.875000 0.625000
vt 0.625000 0.625000
vt 0.125000 0.609391
vt 0.375000 0.609391
vt 0.375000 0.625000
vt 0.125000 0.625000
vt 0.375000 0.109375
vt 0.625000 0.109375
vt 0.625000 0.125000
vt 0.375000 0.125000
vt 0.375000 0.046875
vt 0.625000 0.046875
vt 0.625000 0.062500
vt 0.375000 0.062500
vt 0.625000 0.671875
vt 0.875000 0.671875
vt 0.875000 0.687500
vt 0.625000 0.687500
vt 0.125000 0.671875
vt 0.375000 0.671875
vt 0.375000 0.687500
vt 0.125000 0.687500
vt 0.375000 0.546875
vt 0.625000 0.546875
vt 0.625000 0.562500
vt 0.375000 0.562500
vt 0.125000 0.546875
vt 0.125000 0.562500
vt 0.875000 0.546875
vt 0.875000 0.562500
vt 0.375000 0.171875
vt 0.625000 0.171875
vt 0.625000 0.187500
vt 0.375000 0.187500
vt 0.625000 0.515625
vt 0.875000 0.515625
vt 0.875000 0.531250
vt 0.625000 0.531250
vt 0.125000 0.515625
vt 0.375000 0.515625
vt 0.375000 0.531250
vt 0.125000 0.531250
vt 0.375000 0.203125
vt 0.625000 0.203125
vt 0.625000 0.218750
vt 0.375000 0.218750
vt 0.375000 0.140609
vt 0.625000 0.140609
vt 0.625000 0.156250
vt 0.375000 0.156250
vt 0.375000 0.578125
vt 0.625000 0.578125
vt 0.625000 0.593750
vt 0.375000 0.593750
vt 0.125000 0.578125
vt 0.125000 0.593750
vt 0.875000 0.578125
vt 0.875000 0.593750
vt 0.375000 0.640625
vt 0.625000 0.640625
vt 0.625000 0.656250
vt 0.375000 0.656250
vt 0.125000 0.640625
vt 0.125000 0.656250
vt 0.875000 0.640625
vt 0.875000 0.656250
vt 0.375000 0.078125
vt 0.625000 0.078125
vt 0.625000 0.093750
vt 0.375000 0.093750
vt 0.375000 0.015625
vt 0.625000 0.015625
vt 0.625000 0.031250
vt 0.375000 0.031250
vt 0.625000 0.703125
vt 0.875000 0.703125
vt 0.875000 0.718750
vt 0.625000 0.718750
vt 0.125000 0.703125
vt 0.375000 0.703125
vt 0.375000 0.718750
vt 0.125000 0.718750
vt 0.375000 0.000000
vt 0.625000 0.000000
vt 0.125000 0.500000
vt 0.875000 0.500000
vn 0.1944 0.0026 -0.9809
vn 0.6863 -0.2702 -0.6753
vn -0.9658 0.2575 0.0312
vn 0.0461 -0.1853 0.9816
vn -0.1236 0.0975 0.9875
vn -0.0411 -0.2130 -0.9762
vn -0.0011 0.9986 0.0521
vn -0.0002 -1.0000 -0.0008
vn 1.0000 0.0000 0.0000
vn -0.9749 -0.1787 -0.1328
vn -0.9797 0.1963 0.0397
vn 0.0000 0.9645 -0.2639
vn 0.0000 -0.9963 0.0859
vn 0.9753 -0.2142 -0.0541
vn 0.4684 0.0000 0.8835
vn 0.0903 -0.9804 -0.1750
vn -0.0130 0.9998 -0.0127
vn -0.7556 0.5595 -0.3405
vn 0.0269 0.9995 -0.0170
vn -0.0004 -1.0000 -0.0001
vn 0.7644 0.3913 0.5124
vn -0.8551 -0.3295 -0.4002
vn -0.9184 -0.2670 -0.2922
vn 0.9485 -0.1747 -0.2643
vn 0.0071 -0.9996 0.0261
vn 0.0149 0.8540 -0.5200
vn 0.9757 0.1666 0.1427
vn -0.0141 -0.9999 0.0000
vn 0.0068 0.9995 0.0292
vn -0.9407 -0.3365 -0.0430
vn 0.9996 0.0258 -0.0115
vn -0.1150 0.6041 -0.7886
vn 0.1168 -0.5985 0.7926
vn 0.2993 0.5162 -0.8025
vn 0.9607 -0.0045 0.2776
vn 0.0957 -0.7116 0.6960
vn 0.0000 0.9831 -0.1832
vn -0.2874 -0.5152 0.8075
vn 0.9899 -0.1392 0.0261
vn -0.0882 0.8379 -0.5386
vn -0.0677 -0.8866 0.4575
vn 1.0000 0.0082 0.0010
vn -0.9753 -0.2142 -0.0541
vn 0.9991 -0.0024 -0.0413
vn -0.0073 -0.9992 0.0404
vn 0.0068 0.9997 -0.0213
vn 0.0000 0.9984 -0.0565
vn 0.9757 0.1666 -0.1427
vn -0.9428 -0.3333 0.0000
vn -0.9692 0.0000 0.2461
vn 0.9428 -0.3333 0.0000
vn 0.0063 -0.9994 -0.0340
vn -0.0005 1.0000 -0.0001
vn -0.0269 0.9849 0.1710
vn -0.0381 -0.9924 0.1172
vn -0.8832 0.0000 0.4690
vn -0.9401 -0.0061 -0.3409
vn -0.4214 0.5311 -0.7351
vn 0.0001 1.0000 -0.0003
vn -0.0115 -0.9999 -0.0116
vn 0.8550 0.3045 0.4198
vn 0.7089 0.0506 0.7035
vn 0.0099 -0.9999 -0.0087
vn -0.0209 0.9994 0.0286
vn -0.6291 0.0069 -0.7773
usemtl None
s off
f 67/1/1 65/2/1 4/3/1 3/4/1
f 3/4/2 4/3/2 8/5/2 7/6/2
f 44/7/3 42/8/3 6/9/3 5/10/3
f 5/10/4 6/9/4 2/11/4 1/12/4
f 41/13/5 44/7/5 5/10/5 1/14/5
f 42/8/6 43/15/6 2/16/6 6/9/6
f 54/17/7 55/18/7 10/19/7 12/20/7
f 53/21/8 56/22/8 11/23/8 9/24/8
f 56/22/9 54/17/9 12/20/9 11/23/9
f 51/25/10 49/26/10 10/27/10 9/28/10
f 39/29/11 37/30/11 15/31/11 13/32/11
f 46/33/12 47/34/12 15/35/12 14/36/12
f 45/37/13 48/38/13 16/39/13 13/40/13
f 48/38/14 46/33/14 14/36/14 16/39/14
f 64/41/15 62/42/15 20/43/15 18/44/15
f 61/45/16 64/41/16 18/44/16 19/46/16
f 62/42/17 63/47/17 17/48/17 20/43/17
f 59/49/18 57/50/18 17/51/18 19/52/18
f 68/53/19 65/54/19 21/55/19 24/56/19
f 67/57/20 66/58/20 22/59/20 23/60/20
f 66/58/21 68/53/21 24/56/21 22/59/21
f 61/61/22 63/62/22 21/63/22 23/64/22
f 53/65/23 55/66/23 27/67/23 25/68/23
f 58/69/24 60/70/24 26/71/24 28/72/24
f 59/73/25 58/69/25 28/72/25 25/74/25
f 60/70/26 57/75/26 27/76/26 26/71/26
f 50/77/27 52/78/27 32/79/27 30/80/27
f 51/81/28 50/77/28 30/80/28 31/82/28
f 52/78/29 49/83/29 29/84/29 32/79/29
f 45/85/30 47/86/30 29/87/30 31/88/30
f 41/89/31 43/90/31 35/91/31 33/92/31
f 40/93/32 37/94/32 35/95/32 34/96/32
f 39/97/33 38/98/33 36/99/33 33/100/33
f 38/98/34 40/93/34 34/96/34 36/99/34
f 16/39/35 14/36/35 40/93/35 38/98/35
f 13/40/36 16/39/36 38/98/36 39/97/36
f 14/36/37 15/35/37 37/94/37 40/93/37
f 33/92/38 35/91/38 37/30/38 39/29/38
f 1/101/39 2/102/39 43/90/39 41/89/39
f 34/96/40 35/95/40 43/15/40 42/8/40
f 33/100/41 36/99/41 44/7/41 41/13/41
f 36/99/42 34/96/42 42/8/42 44/7/42
f 13/32/43 15/31/43 47/86/43 45/85/43
f 30/80/44 32/79/44 46/33/44 48/38/44
f 31/82/45 30/80/45 48/38/45 45/37/45
f 32/79/46 29/84/46 47/34/46 46/33/46
f 12/20/47 10/19/47 49/83/47 52/78/47
f 9/24/28 11/23/28 50/77/28 51/81/28
f 11/23/48 12/20/48 52/78/48 50/77/48
f 31/88/49 29/87/49 49/26/49 51/25/49
f 9/28/50 10/27/50 55/66/50 53/65/50
f 28/72/51 26/71/51 54/17/51 56/22/51
f 25/74/52 28/72/52 56/22/52 53/21/52
f 26/71/53 27/76/53 55/18/53 54/17/53
f 20/43/54 17/48/54 57/75/54 60/70/54
f 19/46/55 18/44/55 58/69/55 59/73/55
f 18/44/56 20/43/56 60/70/56 58/69/56
f 25/68/57 27/67/57 57/50/57 59/49/57
f 19/52/58 17/51/58 63/62/58 61/61/58
f 24/56/59 21/55/59 63/47/59 62/42/59
f 23/60/60 22/59/60 64/41/60 61/45/60
f 22/59/61 24/56/61 62/42/61 64/41/61
f 7/6/62 8/5/62 68/53/62 66/58/62
f 3/103/63 7/6/63 66/58/63 67/57/63
f 8/5/64 4/104/64 65/54/64 68/53/64
f 23/64/65 21/63/65 65/2/65 67/1/65
