# Blender v3.0.1 OBJ File: 'copper.blend'
# www.blender.org
mtllib copper.mtl
o Low_Poly_Rock_Low_Poly_Rock_Mesh.001
v -1.486345 -1.456553 1.221206
v -1.224103 -0.088747 1.079702
v -0.860908 -0.664991 1.581122
v -1.093043 -0.203410 1.308278
v -1.583188 -0.897269 1.203437
v -1.208033 -0.417423 1.303038
v -1.822364 -1.299207 0.577199
v -1.738605 -1.168646 0.286941
v -1.557396 -1.860983 1.167895
v -1.508383 -1.386520 1.393304
v -1.662993 -1.917121 0.878630
v -1.773929 -1.832294 0.315086
v -1.666364 -0.987140 0.652848
v -1.321888 -0.325592 0.707260
v -1.868716 -0.858640 0.234871
v -1.638011 -0.293249 0.185918
v -1.539312 -1.177167 1.029432
v -1.170865 -0.514206 0.886010
v -1.351130 -1.974507 1.776355
v -1.687755 -1.895031 1.915123
v -0.020296 -1.302121 1.738929
v -1.017724 -2.293571 2.407142
v -0.122782 -1.528330 1.717141
v -0.474133 -0.499808 1.574867
v -0.479649 -0.298199 1.738966
v -0.775164 -1.033515 1.512402
v -0.273974 -0.647427 1.770303
v -0.224308 -0.369946 1.685141
v -0.535244 -1.151995 1.572391
v -1.712201 -2.156155 1.886613
v -1.657149 -1.862842 1.643201
v -2.148697 -2.737015 0.759637
v -0.337249 -2.768738 1.442419
v -0.240082 -2.706803 0.153434
v -1.316087 0.256725 0.931657
v -1.264742 0.761264 0.815331
v -0.942692 0.305288 1.426224
v -0.991024 0.644998 1.322826
v -1.167785 0.311846 1.235150
v -1.177521 0.759018 1.016431
v -0.802096 1.523239 0.801092
v -1.425054 0.304018 0.659347
v -1.382940 1.109045 0.666904
v -1.418344 0.328660 0.125931
v -1.367816 0.894189 0.424100
v -1.142010 1.226000 0.839394
v -1.503748 1.437964 0.456959
v -1.404567 1.684467 0.425981
v -1.065521 1.821555 0.497505
v -0.676906 2.002698 0.497918
v -0.991077 1.910240 0.343504
v -1.038620 2.019958 0.079989
v -0.597591 0.253540 1.666148
v -0.329766 0.852075 1.609199
v -0.774117 1.101292 1.010024
v -0.221941 0.413577 1.760472
v -0.205664 0.914431 1.637733
v -0.623345 1.370596 1.296015
v -0.542350 1.681775 1.165416
v -0.502494 1.933618 0.971870
v -0.213657 1.333362 1.482380
v -0.049049 1.851637 1.004738
v -0.093372 2.108282 0.834896
v -0.653372 1.754575 0.728263
v -0.505270 2.076527 0.727808
v -0.539984 2.442874 0.059335
v -0.170791 2.418377 0.519253
v -0.208889 2.409553 0.192630
v -1.490535 -1.154176 -0.133633
v -1.980205 -2.194051 -1.065931
v -1.817151 -1.517934 -0.653502
v -1.831268 -2.187392 -0.616790
v -1.767052 -1.487675 -1.457687
v -1.822523 -0.599307 -0.008336
v -1.734229 -0.419779 -0.002556
v -1.700963 -0.813523 -0.900271
v -1.614810 -0.494459 -0.769274
v -1.616995 -1.042930 -0.480824
v -1.684383 -1.084425 -0.846261
v -1.286713 -1.164856 -1.504764
v -1.403319 -0.815587 -0.780341
v -1.433470 -0.233891 -0.907559
v -0.939091 -1.347687 -1.584419
v -1.148468 -0.328657 -1.179820
v -1.096969 -0.823398 -1.367484
v -1.114990 -0.180657 -1.309120
v -1.966795 -2.974589 -0.348213
v -0.952248 -2.135725 -0.666104
v -1.211645 -1.609858 -1.331109
v -0.490026 -2.987832 -1.041646
v -0.438689 -2.504687 -2.008840
v -0.575568 -1.853068 -1.977155
v -0.857587 -1.183230 -1.681075
v -0.772578 -1.239510 -1.718617
v -0.159011 -2.171233 -1.965562
v -0.301661 -1.592144 -1.790455
v -0.141750 -1.176198 -1.749951
v -1.173292 -1.160448 -1.498867
v -0.824959 -0.812879 -1.797214
v -0.713122 -0.809892 -1.786362
v -0.383796 -1.050766 -1.680114
v -0.212563 -0.087448 -1.490566
v -1.513722 0.309129 -0.166187
v -1.234755 0.957634 -0.279669
v -1.489490 0.297836 -0.632424
v -1.310824 0.761577 -0.738136
v -1.301482 1.314342 -0.270646
v -1.236401 1.128033 -0.621879
v -1.301122 1.293855 -0.079192
v -1.281018 1.493371 -0.147277
v -0.757574 2.101842 -0.188846
v -0.894415 1.649348 -0.706925
v -0.834187 2.061247 -0.472808
v -1.419942 0.160832 -1.080524
v -1.233518 0.746952 -1.008994
v -1.151069 0.114746 -1.112440
v -1.153990 0.998599 -1.079995
v -1.062161 0.023469 -1.301124
v -1.057245 1.421494 -0.988143
v -0.566978 2.465772 -0.024232
v -0.732660 1.853608 -0.742541
v -0.599530 2.149640 -0.546017
v -0.184341 2.186062 -0.173609
v -0.194118 2.084155 -0.566764
v -0.723294 0.752640 -1.256644
v -0.622454 1.020254 -1.211411
v -0.636196 0.418759 -1.355593
v -0.603556 0.812392 -1.315153
v -0.224974 1.209405 -1.346786
v -0.146896 0.183117 -1.546137
v -0.014934 0.965504 -1.208686
v -0.798308 1.670570 -1.117833
v -0.365532 1.925952 -1.022303
v -0.369832 1.531179 -1.174660
v -0.214262 1.977674 -0.995634
v -0.061790 1.391043 -1.297402
v 0.089440 -1.349444 1.721716
v 0.684647 -2.177452 2.616182
v 0.533678 -2.084588 2.257828
v 0.664005 -2.189215 2.228046
v 1.291225 -1.784618 1.751324
v 0.307501 -0.952834 1.585227
v 0.272708 -0.422569 1.552524
v 0.418264 -1.000938 1.509481
v 0.292551 -0.625795 1.406622
v 0.607651 -0.197457 1.684749
v 0.568662 -1.054234 1.566340
v 0.777768 -0.443713 1.398487
v 0.575738 -2.780084 1.752655
v 0.346039 -2.989658 0.285456
v 2.036651 -2.278645 1.403365
v 1.597325 -1.779289 1.670066
v 1.595931 -2.929890 0.530667
v 1.189490 -1.385349 1.207290
v 1.064027 -0.082546 1.354071
v 1.524440 -0.833788 0.906972
v 1.096265 -0.305241 1.001695
v 1.896341 -2.056895 1.140643
v 1.778193 -1.435039 0.805212
v 2.347742 -2.343585 0.646985
v 2.646370 -1.653955 0.414104
v 1.777732 -1.344098 0.671292
v 1.484726 -1.359757 0.080852
v 1.370892 -0.819091 0.918016
v 1.432399 -0.374758 0.857490
v 1.819362 -0.919867 0.756179
v 1.528746 -0.419817 0.383280
v 1.688502 -0.556921 0.351665
v 1.529058 -0.142129 0.333546
v 0.179031 0.252240 1.576139
v 0.342424 0.971346 1.584595
v 0.708137 0.351232 1.607053
v 0.736518 1.174315 1.339177
v 0.813634 1.247297 1.242938
v 0.123231 1.312690 1.304788
v 0.117234 1.788904 1.033803
v 0.275054 2.157481 0.811790
v 0.486785 1.364461 1.254969
v 0.582700 1.553963 1.264302
v 0.472871 2.017336 1.036907
v -0.029292 2.396342 0.684458
v 0.317666 2.201577 0.242856
v 0.690360 1.813982 0.654105
v 0.429325 2.123680 0.485774
v 0.700325 2.143812 0.333597
v 0.880131 0.212651 1.417709
v 0.885528 1.205891 1.229719
v 0.940895 0.078998 1.222094
v 0.999285 1.199621 1.254687
v 1.001878 1.285093 1.023340
v 1.165867 0.240363 0.855904
v 1.222788 0.928160 0.765258
v 1.411211 0.126160 0.624815
v 1.334586 0.925602 0.554759
v 1.674027 0.577768 0.127327
v 1.525041 0.991265 0.124800
v 1.149788 1.473553 0.896594
v 0.866528 2.050507 0.354899
v 1.086659 1.779809 0.031770
v 1.043716 1.955734 0.014612
v 1.166970 1.436438 0.520680
v 1.320790 1.429927 0.189144
v 0.699223 -3.169789 -0.769013
v 0.354391 -2.644641 -1.336109
v 1.136328 -1.954767 -1.548316
v 1.481354 -3.100617 -0.222347
v 1.555152 -1.888048 -0.961298
v 1.343431 -2.102307 -1.144362
v 1.307547 -1.629048 -1.559702
v -0.141805 -2.155571 -2.045226
v 0.263945 -1.637714 -1.620966
v 0.375679 -1.534062 -1.901853
v 0.903996 -1.527159 -1.237306
v 0.706554 -1.202126 -2.002120
v 0.219898 -0.838681 -1.570605
v 0.059742 -0.222275 -1.548389
v 1.101638 -1.219951 -1.685007
v 0.976760 -0.898262 -1.600987
v 0.594555 -0.273692 -1.538806
v 1.960611 -2.385490 -0.737810
v 2.356677 -1.619721 -0.762256
v 1.695951 -1.282388 -0.411505
v 1.833061 -1.227862 -0.151235
v 1.848612 -1.238646 -0.342879
v 1.673753 -0.896636 -1.017991
v 1.585891 -0.819620 -0.283791
v 1.271388 -0.244278 -0.091843
v 1.578008 -0.997072 -0.902668
v 1.664205 0.196774 -0.738408
v 1.198591 -1.219125 -1.149138
v 1.129991 -0.604333 -1.345271
v 1.397548 -0.531435 -1.227120
v 1.060218 -0.782656 -1.503448
v 1.052392 -0.340540 -1.424420
v 1.385075 -0.759734 -1.185807
v 1.238734 -0.269893 -0.955873
v 0.077261 2.148598 -0.121594
v 0.141551 2.050047 -0.605841
v 0.547146 1.980573 -0.214556
v 0.897632 1.921623 -0.703322
v 0.762224 2.045097 -0.636658
v 0.126378 0.492881 -1.455706
v 0.361641 1.080993 -1.574612
v 0.741183 1.217117 -1.241012
v 0.604862 0.125157 -1.624532
v 0.609959 0.967182 -1.445692
v 0.139097 1.813214 -1.048729
v 0.193355 1.984963 -1.012223
v 0.017036 1.436191 -1.434040
v 0.619891 1.524146 -1.180892
v 0.444649 1.994875 -0.816095
v 0.501832 1.243162 -1.299450
v 1.244475 1.134646 -0.735836
v 1.668230 0.402094 -0.240156
v 1.284421 0.979116 -0.082726
v 1.606123 0.101828 -0.589910
v 1.312613 0.889981 -0.580835
v 1.156475 1.666886 -0.252654
v 1.018546 2.005941 -0.203374
v 0.912593 1.761800 -0.628645
v 0.972978 1.986165 -0.698262
v 1.144324 1.493912 -0.259254
v 1.417380 1.132266 -0.472540
v 1.409061 0.322600 -0.987231
v 0.997216 1.032483 -1.197875
v 0.930681 0.223282 -1.478977
v 1.140882 0.801465 -1.496905
v 1.368888 0.301404 -0.992828
v 1.319099 0.645978 -0.914860
v 1.019055 1.644968 -1.159507
vn -0.5034 0.2298 0.8329
vn -0.9680 0.0423 0.2472
vn -0.9708 -0.1710 0.1683
vn -0.7866 0.3665 0.4969
vn -0.6763 0.4054 0.6150
vn -0.1890 0.6212 0.7605
vn -0.3474 -0.1212 0.9298
vn -0.4825 0.0419 0.8749
vn -0.1008 -0.9697 0.2224
vn -0.3913 0.0107 0.9202
vn -0.2337 -0.2305 0.9446
vn -0.9709 0.1268 -0.2033
vn -0.8437 0.5301 0.0845
vn -0.4166 -0.0600 0.9071
vn -0.4693 -0.7761 0.4212
vn -0.7699 0.4851 -0.4147
vn -0.9690 -0.1921 0.1556
vn -0.9836 0.0342 0.1772
vn -0.8169 0.4165 0.3989
vn -0.3357 -0.1140 0.9351
vn 0.0152 0.3993 0.9167
vn -0.9872 -0.1038 0.1214
vn -0.5691 0.5162 0.6401
vn 0.1319 0.6869 0.7147
vn -0.7266 0.2137 0.6530
vn -0.8984 0.1803 0.4005
vn -0.9959 0.0778 -0.0471
vn -0.4238 0.8284 0.3663
vn -0.3882 0.5912 0.7069
vn -0.3292 0.2346 0.9146
vn 0.0462 0.5811 0.8125
vn -0.1118 0.6090 0.7853
vn -0.3640 0.8678 0.3384
vn -0.4787 0.2555 0.8400
vn -0.4865 0.6394 0.5954
vn -0.5196 0.5543 0.6502
vn -0.6178 0.6431 0.4525
vn -0.8307 0.1047 0.5468
vn -0.7657 0.1701 0.6203
vn -0.8849 0.3806 0.2684
vn -0.2217 0.7422 0.6325
vn -0.8957 -0.1999 -0.3971
vn -0.5358 0.4137 0.7361
vn -0.8903 0.0153 0.4550
vn -0.3668 0.3188 0.8740
vn -0.2932 0.4443 0.8465
vn -0.6233 0.3134 0.7164
vn -0.5901 0.5619 0.5798
vn -0.8719 -0.0085 -0.4896
vn -0.9074 0.3714 -0.1965
vn -0.9510 -0.3084 0.0217
vn -0.9295 -0.2114 0.3022
vn -0.8277 -0.0267 -0.5606
vn -0.8236 -0.4575 -0.3353
vn -0.7205 -0.0877 -0.6879
vn -0.0962 0.0737 -0.9926
vn 0.3625 0.0863 -0.9280
vn -0.0042 -0.7759 -0.6309
vn 0.3562 -0.3561 -0.8639
vn -0.7285 0.1768 -0.6619
vn -0.9765 0.2148 0.0162
vn 0.1818 0.2030 -0.9622
vn -0.4447 0.1988 -0.8733
vn -0.0420 0.0068 -0.9991
vn -0.3269 0.5331 -0.7803
vn -0.9547 0.2974 0.0113
vn -0.9394 -0.2007 0.2779
vn -0.5020 -0.2182 -0.8369
vn 0.0844 0.0292 -0.9960
vn -0.1969 0.9518 -0.2352
vn -0.0646 0.5292 0.8460
vn -0.1003 -0.3763 -0.9210
vn -0.9265 0.3749 -0.0321
vn -0.9999 0.0090 0.0093
vn -0.8247 0.5156 -0.2325
vn -0.3400 0.1085 -0.9342
vn 0.2907 0.8651 -0.4087
vn -0.5122 0.2113 -0.8325
vn -0.0501 0.3119 -0.9488
vn -0.0025 -0.0771 -0.9970
vn 0.0059 0.3600 -0.9329
vn -0.5671 0.5355 -0.6257
vn -0.6901 0.6918 -0.2128
vn -0.3326 0.0916 -0.9386
vn -0.5470 0.3018 -0.7808
vn -0.9164 0.3105 -0.2527
vn -0.9339 0.2512 -0.2543
vn -0.4915 0.7441 -0.4525
vn 0.0269 0.9411 -0.3370
vn -0.8001 0.4366 -0.4113
vn -0.9964 -0.0843 -0.0071
vn 0.1360 0.1443 -0.9801
vn -0.2333 0.1840 -0.9548
vn -0.9016 0.4197 -0.1047
vn -0.3519 0.1341 -0.9264
vn -0.7509 0.6449 -0.1423
vn 0.5664 0.5246 0.6356
vn 0.0690 -0.1397 0.9878
vn 0.7122 -0.3622 0.6014
vn 0.1908 0.3185 0.9285
vn 0.2048 -0.9362 0.2857
vn 0.6030 0.2459 0.7589
vn 0.3268 0.9445 -0.0342
vn 0.5862 0.5447 0.5998
vn 0.7340 0.4222 0.5319
vn 0.6012 0.1658 0.7817
vn 0.6808 -0.4706 0.5613
vn 0.8599 0.4431 0.2533
vn 0.7735 -0.5197 0.3628
vn 0.4764 0.1038 0.8731
vn 0.5186 -0.5817 0.6267
vn 0.6162 0.2055 0.7603
vn 0.0110 0.5125 0.8586
vn 0.2548 0.5329 0.8069
vn 0.9100 -0.0632 -0.4097
vn 0.5511 0.0353 0.8337
vn 0.6670 0.1583 0.7281
vn 0.6133 0.4350 0.6593
vn 0.2898 0.8396 0.4594
vn 0.1799 0.1414 0.9735
vn -0.3066 0.4660 0.8300
vn -0.1170 0.3769 0.9188
vn 0.3763 0.9185 0.1215
vn 0.7111 0.0302 0.7025
vn 0.8376 0.1865 0.5134
vn 0.7851 0.0768 0.6146
vn 0.8532 0.4940 0.1674
vn 0.8684 0.4615 0.1814
vn 0.7007 0.1614 0.6950
vn 0.2835 0.1924 0.9395
vn 0.2337 0.6911 0.6839
vn 0.4437 0.8531 0.2745
vn 0.8828 -0.0413 0.4680
vn 0.8369 0.5070 0.2062
vn 0.5209 0.8386 0.1596
vn 0.1212 0.2391 0.9634
vn 0.0959 0.6187 0.7798
vn 0.8533 0.3211 0.4107
vn 0.9596 0.2004 0.1975
vn 0.8536 0.1731 0.4912
vn 0.5401 0.6195 0.5696
vn 0.4667 0.6744 0.5722
vn 0.7911 -0.3576 -0.4963
vn 0.5614 -0.6419 -0.5223
vn 0.4757 -0.5331 -0.6996
vn 0.4724 -0.8013 -0.3672
vn -0.0106 0.0632 -0.9979
vn 0.3476 0.8641 -0.3641
vn 0.9512 0.0619 0.3022
vn 0.6495 -0.0368 -0.7595
vn 0.9765 -0.0889 -0.1964
vn 0.0558 -0.3710 -0.9270
vn 0.5195 0.5050 -0.6893
vn 0.3346 0.2429 -0.9105
vn 0.5533 0.3636 -0.7495
vn 0.3833 -0.2194 -0.8972
vn 0.0418 0.6024 -0.7971
vn 0.5681 0.2068 -0.7965
vn -0.0716 0.7090 0.7016
vn 0.5405 -0.4672 -0.6997
vn -0.2405 0.5916 -0.7695
vn 0.8339 0.5394 -0.1174
vn 0.9073 -0.2305 -0.3518
vn 0.5291 -0.5012 -0.6847
vn 0.9520 -0.2532 -0.1719
vn 0.4010 0.6993 -0.5918
vn 0.1579 0.9874 0.0116
vn -0.0244 0.0460 -0.9986
vn 0.2773 0.5460 -0.7906
vn 0.2636 0.5240 -0.8099
vn 0.8568 0.4547 -0.2431
vn 0.9452 0.1191 -0.3039
vn 0.8529 0.4901 -0.1796
vn 0.9081 0.0688 -0.4131
vn 0.8597 0.3270 -0.3924
vn 0.0627 0.0050 -0.9980
vn 0.0534 0.9969 0.0585
vn 0.1163 0.0944 -0.9887
vn 0.3019 0.6932 -0.6544
vn 0.9058 0.2977 -0.3016
vn 0.8802 0.2759 -0.3862
vn 0.2805 0.6557 -0.7010
vn 0.0338 0.9776 -0.2078
vn 0.2582 0.4111 -0.8743
vn 0.4822 0.6249 -0.6140
vn 0.9344 0.0750 0.3482
vn 0.7893 0.3339 -0.5153
vn 0.9467 0.2592 -0.1914
vn 0.1087 0.1175 -0.9871
vn 0.1905 0.8611 -0.4715
vn -0.0474 0.7892 0.6123
vn -0.3193 0.3563 0.8781
vn 0.3199 0.1310 0.9383
vn -0.2099 -0.9757 0.0624
vn 0.3283 0.1050 0.9387
vn -0.0629 -0.8682 0.4922
vn 0.2480 0.0541 0.9673
vn 0.0040 0.5305 0.8477
vn 0.3195 0.5368 0.7808
vn 0.3536 0.9296 -0.1042
vn 0.1935 0.5303 0.8254
vn -0.2580 0.4917 0.8317
vn 0.1356 -0.8159 -0.5621
vn 0.1587 0.4438 -0.8819
vn -0.1207 -0.3642 -0.9235
vn 0.0467 0.1324 -0.9901
vn 0.0245 0.4485 -0.8935
vn 0.4702 -0.4772 -0.7424
vn 0.1208 0.9693 -0.2140
vn -0.5196 0.2686 -0.8111
vn 0.0098 0.3262 -0.9452
vn -0.3431 0.5926 -0.7288
vn -0.6627 -0.2863 -0.6920
vn 0.0203 0.9795 -0.2004
vn -0.9881 0.0922 0.1234
vn -0.9335 0.3546 -0.0537
vn 0.0879 -0.9723 0.2164
vn -0.8910 0.3946 0.2246
vn -0.7805 -0.3746 -0.5005
vn -0.9596 0.2814 -0.0049
vn -0.0114 -0.9819 0.1891
vn 0.8628 -0.4519 -0.2267
vn 0.3916 0.9118 0.1238
vn 0.7866 0.4506 -0.4221
vn 0.9623 0.0034 0.2720
vn 0.7081 -0.6995 -0.0966
vn -0.9638 0.2654 -0.0248
vn -0.8537 0.4800 -0.2017
vn -0.7146 0.6028 -0.3550
vn 0.3641 0.8499 -0.3810
vn -0.9826 -0.0582 -0.1765
vn -0.6894 0.6589 -0.3010
vn 0.7429 0.4736 -0.4731
vn 0.2417 0.9157 -0.3212
vn 0.9435 0.3287 0.0428
vn 0.9245 0.3470 -0.1577
vn 0.8278 0.2393 -0.5075
vn 0.1292 0.9762 -0.1741
vn -0.5201 0.0456 0.8529
vn -0.9522 0.0155 0.3051
vn -0.9517 0.1132 0.2853
vn -0.0630 -0.0073 0.9980
vn -0.9346 -0.1197 0.3349
vn -0.5750 -0.0172 0.8180
vn -0.9676 0.2177 -0.1279
vn -0.9339 0.1120 -0.3395
vn -0.4987 -0.1019 -0.8608
vn -0.0170 0.2443 -0.9696
vn -0.9223 0.0965 -0.3743
vn -0.4548 0.2982 -0.8392
vn -0.2014 0.0444 0.9785
vn 0.8478 0.4987 -0.1805
vn 0.9163 -0.0310 0.3993
vn 0.8968 0.2170 0.3855
vn 0.6581 0.1149 0.7441
vn 0.6374 0.0758 0.7668
vn -0.1486 0.0164 -0.9888
vn 0.8340 -0.5124 0.2044
vn 0.6443 0.1481 -0.7503
vn 0.7101 -0.1679 0.6838
vn 0.6657 0.0732 -0.7426
vn 0.3169 -0.1008 -0.9431
vn -0.9051 0.3377 0.2582
vn 0.9027 -0.3995 -0.1600
vn 0.3232 -0.0439 0.9453
vn 0.0498 0.0309 -0.9983
vn -0.2873 -0.9408 0.1797
vn 0.3191 0.8513 -0.4164
usemtl None
s off
f 3//1 4//1 6//1 5//1
f 9//2 10//2 12//2 11//2
f 7//3 8//3 12//3 10//3
f 13//4 14//4 16//4 15//4
f 13//5 17//5 18//5 14//5
f 19//6 22//6 23//6 20//6
f 24//7 27//7 28//7 25//7
f 24//8 26//8 29//8 27//8
f 30//9 32//9 34//9 33//9
f 3//10 24//10 25//10 4//10
f 3//11 5//11 26//11 24//11
f 9//12 30//12 31//12 10//12
f 9//13 11//13 32//13 30//13
f 19//14 20//14 31//14 30//14
f 19//15 30//15 33//15 22//15
f 5//16 6//16 18//16 17//16
f 2//17 14//17 18//17 6//17
f 7//18 13//18 15//18 8//18
f 7//19 10//19 17//19 13//19
f 21//20 27//20 29//20 23//20
f 20//21 23//21 29//21 26//21
f 1//22 5//22 17//22 10//22
f 1//23 20//23 26//23 5//23
f 1//24 10//24 31//24 20//24
f 37//25 38//25 40//25 39//25
f 35//26 39//26 40//26 36//26
f 42//27 43//27 45//27 44//27
f 49//28 50//28 52//28 51//28
f 49//29 51//29 48//29 47//29
f 53//30 56//30 57//30 54//30
f 59//31 62//31 63//31 60//31
f 61//32 62//32 59//32 58//32
f 67//33 68//33 66//33 65//33
f 37//34 53//34 54//34 38//34
f 54//35 55//35 40//35 38//35
f 49//36 64//36 65//36 50//36
f 65//37 66//37 52//37 50//37
f 35//38 36//38 43//38 42//38
f 40//39 46//39 43//39 36//39
f 59//40 60//40 65//40 64//40
f 63//41 67//41 65//41 60//41
f 43//42 47//42 48//42 45//42
f 43//43 46//43 49//43 47//43
f 54//44 58//44 59//44 55//44
f 54//45 57//45 61//45 58//45
f 40//46 41//46 49//46 46//46
f 40//47 55//47 59//47 41//47
f 59//48 64//48 49//48 41//48
f 70//49 71//49 73//49 72//49
f 74//50 75//50 77//50 76//50
f 74//51 76//51 79//51 78//51
f 83//52 84//52 86//52 85//52
f 82//53 84//53 83//53 81//53
f 89//54 92//54 91//54 88//54
f 87//55 88//55 91//55 90//55
f 93//56 94//56 97//56 96//56
f 100//57 102//57 101//57 99//57
f 73//58 89//58 88//58 72//58
f 70//59 72//59 88//59 87//59
f 86//60 100//60 99//60 85//60
f 83//61 85//61 99//61 98//61
f 91//62 92//62 96//62 95//62
f 89//63 93//63 96//63 92//63
f 76//64 77//64 82//64 81//64
f 76//65 81//65 83//65 79//65
f 71//66 78//66 79//66 73//66
f 74//67 78//67 71//67 69//67
f 93//68 98//68 99//68 94//68
f 99//69 101//69 97//69 94//69
f 73//70 79//70 83//70 80//70
f 83//71 98//71 93//71 80//71
f 73//72 80//72 93//72 89//72
f 103//73 104//73 106//73 105//73
f 107//74 108//74 106//74 104//74
f 110//75 111//75 113//75 112//75
f 115//76 117//76 116//76 114//76
f 123//77 124//77 122//77 120//77
f 125//78 126//78 128//78 127//78
f 128//79 131//79 130//79 127//79
f 129//80 131//80 128//80 126//80
f 133//81 135//81 134//81 132//81
f 113//82 122//82 121//82 112//82
f 120//83 122//83 113//83 111//83
f 117//84 126//84 125//84 116//84
f 125//85 127//85 118//85 116//85
f 105//86 106//86 115//86 114//86
f 108//87 117//87 115//87 106//87
f 121//88 122//88 133//88 132//88
f 124//89 135//89 133//89 122//89
f 107//90 110//90 112//90 108//90
f 109//91 110//91 107//91 104//91
f 129//92 134//92 136//92 131//92
f 132//93 134//93 129//93 126//93
f 108//94 112//94 119//94 117//94
f 119//95 132//95 126//95 117//95
f 121//96 132//96 119//96 112//96
f 138//97 140//97 141//97 139//97
f 147//98 148//98 146//98 145//98
f 142//99 145//99 146//99 143//99
f 142//100 144//100 147//100 145//100
f 149//101 150//101 153//101 151//101
f 160//102 161//102 159//102 158//102
f 159//103 161//103 163//103 162//103
f 168//104 169//104 167//104 166//104
f 164//105 166//105 167//105 165//105
f 147//106 156//106 157//106 148//106
f 146//107 148//107 157//107 155//107
f 151//108 158//108 159//108 152//108
f 151//109 153//109 160//109 158//109
f 151//110 152//110 141//110 140//110
f 138//111 149//111 151//111 140//111
f 164//112 165//112 157//112 156//112
f 139//113 144//113 142//113 137//113
f 139//114 141//114 147//114 144//114
f 163//115 168//115 166//115 162//115
f 159//116 162//116 166//116 164//116
f 159//117 164//117 156//117 154//117
f 141//118 154//118 156//118 147//118
f 141//119 152//119 159//119 154//119
f 170//120 172//120 173//120 171//120
f 176//121 179//121 180//121 177//121
f 178//122 179//122 176//122 175//122
f 184//123 185//123 182//123 181//123
f 188//124 189//124 187//124 186//124
f 195//125 196//125 194//125 193//125
f 191//126 193//126 194//126 192//126
f 199//127 200//127 198//127 197//127
f 201//128 202//128 199//128 197//128
f 172//129 186//129 187//129 173//129
f 187//130 189//130 174//130 173//130
f 183//131 197//131 198//131 184//131
f 198//132 200//132 185//132 184//132
f 191//133 192//133 189//133 188//133
f 183//134 184//134 180//134 179//134
f 180//135 184//135 181//135 177//135
f 174//136 179//136 178//136 173//136
f 171//137 173//137 178//137 175//137
f 196//138 202//138 201//138 194//138
f 192//139 194//139 201//139 197//139
f 192//140 197//140 190//140 189//140
f 174//141 189//141 190//141 179//141
f 190//142 197//142 183//142 179//142
f 208//143 209//143 207//143 206//143
f 205//144 209//144 208//144 204//144
f 203//145 204//145 208//145 206//145
f 211//146 212//146 214//146 213//146
f 216//147 219//147 218//147 215//147
f 221//148 222//148 224//148 223//148
f 228//149 229//149 227//149 226//149
f 233//150 234//150 232//150 231//150
f 232//151 236//151 235//151 231//151
f 207//152 221//152 220//152 206//152
f 207//153 209//153 222//153 221//153
f 219//154 234//154 233//154 218//154
f 217//155 218//155 233//155 231//155
f 210//156 211//156 205//156 204//156
f 205//157 211//157 213//157 209//157
f 235//158 236//158 229//158 228//158
f 225//159 231//159 235//159 228//159
f 214//160 218//160 217//160 213//160
f 215//161 218//161 214//161 212//161
f 224//162 228//162 226//162 223//162
f 225//163 228//163 224//163 222//163
f 230//164 231//164 225//164 222//164
f 217//165 231//165 230//165 213//165
f 209//166 213//166 230//166 222//166
f 239//167 241//167 238//167 237//167
f 243//168 246//168 245//168 242//168
f 248//169 251//169 250//169 247//169
f 250//170 252//170 249//170 247//170
f 256//171 257//171 255//171 254//171
f 260//172 261//172 259//172 258//172
f 262//173 263//173 260//173 258//173
f 266//174 267//174 265//174 264//174
f 265//175 269//175 268//175 264//175
f 241//176 261//176 260//176 240//176
f 259//177 261//177 241//177 239//177
f 246//178 267//178 266//178 245//178
f 265//179 267//179 246//179 244//179
f 268//180 269//180 257//180 256//180
f 257//181 269//181 265//181 253//181
f 250//182 251//182 241//182 240//182
f 241//183 251//183 248//183 238//183
f 246//184 252//184 250//184 244//184
f 249//185 252//185 246//185 243//185
f 257//186 263//186 262//186 255//186
f 260//187 263//187 257//187 253//187
f 265//188 270//188 260//188 253//188
f 250//189 270//189 265//189 244//189
f 260//190 270//190 250//190 240//190
f 22//191 138//191 139//191 23//191
f 21//192 23//192 139//192 137//192
f 27//193 142//193 143//193 28//193
f 33//194 34//194 150//194 149//194
f 21//195 137//195 142//195 27//195
f 22//196 33//196 149//196 138//196
f 56//197 170//197 171//197 57//197
f 62//198 176//198 177//198 63//198
f 175//199 176//199 62//199 61//199
f 181//200 182//200 68//200 67//200
f 57//201 171//201 175//201 61//201
f 177//202 181//202 67//202 63//202
f 90//203 91//203 204//203 203//203
f 96//204 211//204 210//204 95//204
f 96//205 97//205 212//205 211//205
f 102//206 216//206 215//206 101//206
f 101//207 215//207 212//207 97//207
f 91//208 95//208 210//208 204//208
f 237//209 238//209 124//209 123//209
f 131//210 243//210 242//210 130//210
f 135//211 248//211 247//211 134//211
f 247//212 249//212 136//212 134//212
f 136//213 249//213 243//213 131//213
f 238//214 248//214 135//214 124//214
f 11//215 12//215 71//215 70//215
f 8//216 69//216 71//216 12//216
f 32//217 87//217 90//217 34//217
f 15//218 16//218 75//218 74//218
f 8//219 15//219 74//219 69//219
f 11//220 70//220 87//220 32//220
f 150//221 203//221 206//221 153//221
f 220//222 221//222 161//222 160//222
f 161//223 221//223 223//223 163//223
f 226//224 227//224 169//224 168//224
f 223//225 226//225 168//225 163//225
f 153//226 206//226 220//226 160//226
f 44//227 45//227 104//227 103//227
f 51//228 52//228 111//228 110//228
f 51//229 110//229 109//229 48//229
f 68//230 123//230 120//230 66//230
f 45//231 48//231 109//231 104//231
f 66//232 120//232 111//232 52//232
f 254//233 255//233 196//233 195//233
f 185//234 239//234 237//234 182//234
f 258//235 259//235 200//235 199//235
f 202//236 262//236 258//236 199//236
f 255//237 262//237 202//237 196//237
f 200//238 259//238 239//238 185//238
f 4//239 37//239 39//239 6//239
f 2//240 6//240 39//240 35//240
f 14//241 42//241 44//241 16//241
f 25//242 28//242 56//242 53//242
f 2//243 35//243 42//243 14//243
f 4//244 25//244 53//244 37//244
f 75//245 103//245 105//245 77//245
f 84//246 116//246 118//246 86//246
f 114//247 116//247 84//247 82//247
f 127//248 130//248 102//248 100//248
f 77//249 105//249 114//249 82//249
f 118//250 127//250 100//250 86//250
f 143//251 146//251 172//251 170//251
f 157//252 188//252 186//252 155//252
f 169//253 195//253 193//253 167//253
f 165//254 167//254 193//254 191//254
f 165//255 191//255 188//255 157//255
f 146//256 155//256 186//256 172//256
f 242//257 245//257 219//257 216//257
f 229//258 256//258 254//258 227//258
f 234//259 266//259 264//259 232//259
f 264//260 268//260 236//260 232//260
f 236//261 268//261 256//261 229//261
f 245//262 266//262 234//262 219//262
f 16//263 44//263 103//263 75//263
f 227//264 254//264 195//264 169//264
f 28//265 143//265 170//265 56//265
f 130//266 242//266 216//266 102//266
f 34//267 90//267 203//267 150//267
f 182//268 237//268 123//268 68//268
